<svg xmlns="http://www.w3.org/2000/svg" viewBox="0 0 784.82 117.81"><defs><style>.cls-1{fill:#f8f3f5;}</style></defs><g id="Layer_2" data-name="Layer 2"><g id="Layer_2-2" data-name="Layer 2"><path class="cls-1" d="M95,3.92l-36.68,55L95,113.9a.38.38,0,0,1,0,.4.39.39,0,0,1-.35.21H74a.4.4,0,0,1-.32-.17L47.51,75.05l-26.2,39.29,0,0a.24.24,0,0,1-.09.08l0,0a.33.33,0,0,1-.17,0H.39a.35.35,0,0,1-.18-.05l0,0a.32.32,0,0,1-.1-.1s0,0,0,0H0a.47.47,0,0,1,0-.17V3.7a.38.38,0,0,1,.39-.39H21a.38.38,0,0,1,.38.39V82L73.72,3.48A.37.37,0,0,1,74,3.31h20.6a.38.38,0,0,1,.34.21A.38.38,0,0,1,95,3.92Z"/><path class="cls-1" d="M186.09,85.48l19,28.42a.39.39,0,0,1-.32.61H184.14a.42.42,0,0,1-.33-.17L169.49,92.86a45,45,0,0,1-9.67,1H131.46v20.21a.39.39,0,0,1-.38.39h-20.6a.39.39,0,0,1-.39-.39V3.7a.38.38,0,0,1,.39-.39h49.34a45.28,45.28,0,0,1,26.27,82.17Zm-2.35-36.86a24,24,0,0,0-23.92-23.93H131.46V72.54h28.36a23.94,23.94,0,0,0,23.92-23.93Z"/><path class="cls-1" d="M330,58.91a55.6,55.6,0,1,1-55.6-55.6A55.67,55.67,0,0,1,330,58.91Zm-21.37,0a34.23,34.23,0,1,0-34.23,34.22A34.27,34.27,0,0,0,308.58,58.91Z"/><path class="cls-1" d="M443.16,3.7V114.12a.35.35,0,0,1,0,.17h0l0,0a.36.36,0,0,1-.1.11l0,0a.41.41,0,0,1-.18.05h-20.6a.47.47,0,0,1-.17,0l0,0a.34.34,0,0,1-.09-.08s0,0,0,0L369.51,35.86v78.26a.39.39,0,0,1-.39.39H348.53a.39.39,0,0,1-.39-.39V3.7a.33.33,0,0,1,0-.17h0l0,0a.47.47,0,0,1,.1-.1l0,0a.41.41,0,0,1,.18,0h20.6a.47.47,0,0,1,.17,0l0,0a.34.34,0,0,1,.09.08l0,0L421.79,82V3.7a.38.38,0,0,1,.39-.39h20.59A.38.38,0,0,1,443.16,3.7Z"/><path class="cls-1" d="M561.94,79.12a35.42,35.42,0,0,1-35.37,35.39H467.31a.4.4,0,0,1-.39-.38V3.7a.4.4,0,0,1,.39-.38h43.15A30.9,30.9,0,0,1,539,46,35.43,35.43,0,0,1,561.94,79.12ZM510.45,43.74a9.53,9.53,0,0,0,0-19H488.29V43.74ZM488.29,93.13h38.28a14,14,0,0,0,0-28H488.3Z"/><path class="cls-1" d="M784.82,3.7V24.29a.36.36,0,0,1-.12.28.4.4,0,0,1-.27.12H748v89.43a.39.39,0,0,1-.11.27.36.36,0,0,1-.28.12H727a.39.39,0,0,1-.39-.39V24.68H690.18a.39.39,0,0,1-.39-.39V3.69a.4.4,0,0,1,.39-.39h94.25a.4.4,0,0,1,.27.12A.36.36,0,0,1,784.82,3.7Z"/><path class="cls-1" d="M667.15,23.2a9.15,9.15,0,0,0-12.44,13.43A36.26,36.26,0,1,1,606,36.16a9.15,9.15,0,0,0-12.17-13.67,54.55,54.55,0,1,0,73.33.71Z"/><path class="cls-1" d="M628.6,65.88a7.32,7.32,0,0,0,7.32-7.32V7.32a7.32,7.32,0,1,0-14.64,0V58.56A7.31,7.31,0,0,0,628.6,65.88Z"/></g></g></svg>