<svg id="Layer_1" data-name="Layer 1" xmlns="http://www.w3.org/2000/svg" viewBox="0 0 722.3 894.11"><defs><style>.cls-1{fill:#fff;}.cls-10,.cls-2,.cls-5,.cls-6,.cls-7,.cls-9{fill:none;stroke-miterlimit:10;}.cls-2{stroke:#f2f2f2;}.cls-10,.cls-2{stroke-width:3px;}.cls-3{fill:#221e1f;}.cls-4{fill:#6e0000;}.cls-5{stroke:#8c0007;}.cls-5,.cls-6{stroke-width:2px;}.cls-6{stroke:#000;}.cls-10,.cls-7{stroke:#f9f9f9;}.cls-7{stroke-width:9px;}.cls-8{fill:#ed1a25;}.cls-9{stroke:#8c0202;stroke-width:5px;opacity:0.53;}.cls-11{fill:#dd1922;}</style></defs><path class="cls-1" d="M365.26,81.61c-37.05-3.09-68.24,22.85-85.32,53.58l8.61-8.61c-29.13,18.1-52.43,46.93-51.91,82.72l24-24c-20.7-.56-42,4.4-54.14,22.6C198,220.77,197.63,237.14,198,252c.15,7,.27,14.07,0,21.13,0,.61-.46,3.23-.14,3.63,0,0,2.74-9.15,1.84-7.32,2.45-5,4.36-5.22,2.63-3.54s6-4.23,3.52-2.72c-3.53,2.12,2.92-1.6,3.49-1.35a14.85,14.85,0,0,0-2.82.73c-3.67,1,7.59-.66,3.27-.47-1,0-2,.13-3,.17-2,.09-4.09.12-6.13.27-7.43.54-15,1.58-21.56,5.52-18.57,11.22-19.91,32.33-16,51.6,1,4.92,2.27,9.78,3.28,14.7q.82,4,1.55,8.09c.27,1.51.5,3,.76,4.53.91,5.09-.43-4.68.15.92a130.17,130.17,0,0,1,.82,16.4c0,1.21-.08,2.42-.16,3.62,0,.33-.62,6.25-.12,2.19l.19-1.41q-1,4.11,1.07-1A8.18,8.18,0,0,1,174,364q2.61-1.89.18-.2c-10.47,6.46-19.55,14.18-25.61,25.09s-9,23.1-9.81,35.58c-1.6,23.92,8,47.13,15.11,69.48,7.85,24.83,9.25,51.07,16.42,76.05,2.45,8.52,5.05,17.88,11.76,24,3.72,3.39,7.51,6.7,11.07,10.24,1.83,1.82,3.49,3.75,5.24,5.63,2.19,2.35-3.41-5.08-.78-1.06.75,1.16,1.55,2.27,2.26,3.46.47.79.88,1.61,1.33,2.42,2.31,4.12-1.4-4.86-.2-.56.33,1.17.74,2.31,1,3.49,1.48,6-.24-4.61.25.47.63,6.51,2.26,12.19,7,17,4.16,4.16,11,7.3,17,7,12-.54,25.3-10.62,24-24-1.26-13-4.85-25.18-12.89-35.71-6.83-8.94-14.73-16.21-23-23.8l6.17,10.59c-7.18-19-9.8-39.1-13.45-58.95s-10.48-38.52-16.19-57.85c-1.38-4.67-2.61-9.39-3.53-14.18-.22-1.19-.4-2.4-.62-3.59-.63-3.43.33,4.43.17.94-.1-2.24-.33-4.45-.32-6.69,0-2,.17-3.88.26-5.83.19-4-.17,1.57-.32,2a28.91,28.91,0,0,0,.52-2.86,53.72,53.72,0,0,1,1.46-5.61,14,14,0,0,0,.93-2.72q-2.17,4.93-1,2.43c.29-.64.6-1.28.93-1.91a56.19,56.19,0,0,1,2.89-4.84c1.75-2.69.32,1.25-1.18,1.53A15,15,0,0,0,193,409a16,16,0,0,0,2.07-1.91c-.29.48-4.81,3.19-1.46,1.19,1.82-1.09,3.66-2.22,5.41-3.43,6.47-4.47,11.94-9.55,15-16.9,2.81-6.65,3.28-14.57,3.6-21.76.93-21.07-4.45-42.05-8.81-62.49-.64-3,.51,5.71.38,2.81,0-.73-.12-1.45-.16-2.17-.06-1.14,0-2.27,0-3.41,0-5.09-1.39,5.31-.34,2.33a8.35,8.35,0,0,0,.38-1.37c.38-2.93-2.71,5.78-1.41,3.36,1.93-3.59-3.55,4.15-2,2.54,2.72-2.93-4.62,3.45-2.74,2.07,2.24-1.65,3.91.2-3.28,1.25a21.26,21.26,0,0,0,2.45-.69c4.26-1.23-4.85.47-3.48.39.8-.05,1.61-.16,2.41-.21,1.74-.12,3.48-.15,5.22-.23,5.14-.21,10.49-.51,15.43-2a34.14,34.14,0,0,0,19.67-14.83c5.26-8.76,4.95-20,4.88-30,0-6.57-.37-13.14-.31-19.71,0-2.14-.67-7.19.48-9,.23-.38-1.22,7.1-.5,3.73.15-.7.25-1.42.4-2.12.27-1.23.62-2.41,1-3.62,1.41-4.79-3.19,5.48-.52,1.35a15.39,15.39,0,0,0,.81-1.34c1.44-2.87-4,4.18-2.11,2.67a25.36,25.36,0,0,0,2.57-2.51c-5.54,6-4.41,3-2.82,2.28a24.15,24.15,0,0,0,2.32-1.31c1.51-1,4-.52-3.13,1.29.81-.21,1.6-.57,2.41-.81,1.61-.47,3.25-.77,4.89-1.12,3.66-.77-2.48.39-2.68.36a25.48,25.48,0,0,0,4.06-.3c2.54-.12,5.08-.09,7.62,0,12.83.35,24.18-11.28,24-24,0-1.78,0-3.56.1-5.34.41-6.12-1.15,4.41,0-.24a85.87,85.87,0,0,1,2.25-8.4c.32-.91.66-1.8,1-2.69q-2.13,5-1,2.46c.8-1.47,1.49-3,2.33-4.45,1.45-2.5,3.21-4.77,4.77-7.19-3.56,5.54-1.26,1.69-.1.36s2.28-2.52,3.47-3.74q3.35-3.39,7-6.43c.76-.63,1.52-1.25,2.29-1.85l-2.52,2c1,0,3.3-2.37,4.19-3,5.45-3.67,10.11-6.73,13.61-12.63,1.48-2.47,2.92-4.95,4.53-7.34.94-1.4,1.95-2.75,2.93-4.12s.56-.78-1.55,2c.6-.75,1.22-1.49,1.84-2.22q2.81-3.25,5.9-6.25c1.2-1.15,2.44-2.25,3.71-3.32,4.47-3.78-3.74,2.35.17-.13,2.37-1.51,4.68-3.08,7.18-4.38.82-.43,1.66-.85,2.5-1.24l-3.17,1.31c1.71-.24,3.62-1.36,5.3-1.85,1.36-.39,2.73-.74,4.11-1,.7-.15,1.4-.28,2.11-.39,1.87-.31.94-.18-2.81.38,1.06.38,3.17-.22,4.39-.23,2,0,4,.08,6,.25,12.54,1,24.55-11.78,24-24-.62-13.9-10.56-22.88-24-24Z" transform="translate(-138.6 -52.78)"/><path class="cls-1" d="M208,631.68c-.42,24,2.82,47.69,6,71.37.89,6.64,2.1,12,7,17,4.17,4.17,11,7.3,17,7,6.21-.27,12.65-2.31,17-7,4-4.32,7.86-10.84,7-17-3.17-23.68-6.41-47.42-6-71.37.23-12.56-11.2-24.58-24-24-13.19.59-23.76,10.54-24,24Z" transform="translate(-138.6 -52.78)"/><path class="cls-1" d="M239.18,730c12.56,0,24.58-11,24-24s-10.54-24-24-24c-12.55,0-24.58,11-24,24s10.55,24,24,24Z" transform="translate(-138.6 -52.78)"/><path class="cls-1" d="M222.65,722.64c26.82,29.18,53.92,58.1,80.86,87.17q20,21.62,39.89,43.4c12.63,13.89,24.14,28.68,36.71,42.61a376.26,376.26,0,0,0,44,41.86c5.15,4.13,10.11,7,17,7,5.89,0,12.92-2.61,17-7,8-8.71,10.47-25.56,0-33.94a367.61,367.61,0,0,1-39.2-36.59c-12.64-13.57-23.82-28.34-36.25-42.06C356,795.72,329,766.74,302,737.72q-22.75-24.45-45.4-49c-8.52-9.26-25.42-9.27-33.94,0a24.52,24.52,0,0,0,0,33.94Z" transform="translate(-138.6 -52.78)"/><path class="cls-1" d="M448.81,944.76q68.76,3.57,137.62,1.19c12.53-.44,24.6-10.73,24-24-.56-12.64-10.56-24.47-24-24q-68.8,2.37-137.62-1.19c-12.56-.65-24.56,11.51-24,24,.61,13.56,10.55,23.31,24,24Z" transform="translate(-138.6 -52.78)"/><path class="cls-1" d="M588,945.69c18.74.23,32.52-12,37.82-29.35,1.34-4.4,1.89-9,2.76-13.52.42-2.2,1-4.34,1.53-6.51.67-2.73,2.59-2.23-1.18,2.43.65-.8,1-2,1.65-2.83l-14.34,11a15.56,15.56,0,0,1,2.43-.86q3.75-.81-2.49.18a26.89,26.89,0,0,0,4.08-.21c3.18-.07,6.34,0,9.51-.34,13.18-1.31,25.33-6.84,31.75-19.15,4.72-9.06,6.49-18.91,6.39-29.07-.07-7.21-1-14.38-.4-21.58l-36.11,20.72c15.42,10,36.78,14,53,3.53,11.58-7.47,17.06-19.45,18.11-32.87.28-3.56,0-7.12,0-10.68,0-.8.46-4.32.09-4.62q-1,5.79-.22,1.9,1.17-4-.92,2.18l-8.61,8.61q-29.67-3.13-16.38,1.77a20,20,0,0,0,3.93,1.53,25.26,25.26,0,0,0,2.58.57,49.25,49.25,0,0,0,10.35,1.11,45.94,45.94,0,0,0,19.8-5.12c9.11-4.59,16.67-12.9,21.64-21.69,9.34-16.52,13.86-39.6,7-57.82l-40.12,23.35a39.36,39.36,0,0,0,23.92,13.08c13.63,1.83,26.42-5.15,31.79-17.88,3.41-8.09,3.54-16.46,2.91-25.05-.11-1.5.56-6.88-.19-8,5.37,7.72-31.35,17.24-17.64,18.09,1,.06,2,0,3,0,11.55-.31,23-2.08,33.38-7.27a39.66,39.66,0,0,0,21.65-36.08c-.16-12.55-10.93-24.59-24-24-12.87.57-24.17,10.54-24,24,0,1.12-.36,4.83.22.27.53-4.15.18-1.63-.15-.61-.7,2.18,3-5.73.94-2.61.1-.15,4.14-4.67,2-2.6s2.66-1.92,2.64-1.85c-.13.43-1.7,1-2.11,1.33-.78.52-3.43,1.57.54-.09s.89-.41-.12-.09a41.57,41.57,0,0,1-4.8,1.2c-.73.15-1.47.24-2.2.39-2.87.57,6.41-.64,2.5-.37-3.15.22-6.28.36-9.44.42-9.46.19-18.17,3.39-24.06,11-5.29,6.84-6.61,14.31-6.36,22.81.07,2.44.34,4.87.51,7.32.09,1.35.18,2.71.18,4.06,0,.87-.37,4.48.19.76.33-1.88.35-2.18.06-.88q-3,11.34,17.07-11.8a15.3,15.3,0,0,1,7,2c-2.81-1.59.84.61,1.35,1.38a38,38,0,0,0-2.83-2.85c-6.74-7.62-20.59-9.23-29.09-3.75s-14.83,17-11,27.1a35.43,35.43,0,0,1,1.12,3.49c.61,2.41.26,6.45,0-1.61.09,2.42.32,4.78.2,7.21s-1.4,7,.33-1c-.31,1.43-.49,2.88-.82,4.31a73.24,73.24,0,0,1-2.22,7.36c-1.31,3.82,2.93-6.09.24-.78-.64,1.26-1.33,2.5-2.08,3.69-.55.87-1.21,1.69-1.75,2.56,4-6.4,2.17-2.75.48-1.08-.46.46-.94.9-1.43,1.33q-2.75,2.26,2.59-2a12.71,12.71,0,0,0-2.82,1.66c-1.3.85,6.66-2.09,1.83-1-3.69.86,7.34-.17,1.7-.24s5.3,1.33,1.35.29q-3.43-.94,2.6,1.1l-5.74-2.41A26.9,26.9,0,0,0,663.81,787c-9.08,9.08-9.34,22.32-9.14,34.27,0,1.52-.06,3,0,4.56-.21,2.65-.09,2,.34-2q-1,3.68,1.07-1.69-1.93,3.27,1.29-1.36-2.79,2.57,1.8-1.32-3.31,1.76,2.34-.91-3.72.9,2.73-.16a20.1,20.1,0,0,0-3.8,0c4.22.65,5.07.73,2.52.23-.86-.2-1.71-.43-2.55-.7s-1.68-.57-2.51-.9q5.52,2.4,2.13.79c-1.46-.87-3-1.65-4.37-2.58-7.1-4.61-17.09-4.17-24.23,0-7.77,4.55-11.17,12.09-11.89,20.73-.51,6.19.09,12.35.32,18.54.11,3,0,6-.12,9-.08,2.42,1.29-6-.07-.68-1.3,5.09,1.59-2.19.43-.43-2.7,4.09.84-.86,2.27-2a9.35,9.35,0,0,1,4.81-2.57,17.5,17.5,0,0,1-2.47.62c1.5-1.11,6-.54,1.09-.37-1.38,0-2.75,0-4.13,0-9.93.13-21.33,1.37-28.75,8.79-8,8-9.83,19.53-11.83,30.13-.36,1.91-.74,3.84-1.27,5.72-.25.89-.6,1.76-.84,2.65-1,3.74,2.69-5.67,1-2.51-2.29,4.23,2.78-3.12,1.57-1.84-2.89,3.08,4.42-3,2.3-1.71s6.82-2.17,2.46-1.14q-2.84.66,3.94-.48a18.12,18.12,0,0,1-2.21,0c-12.56-.16-24.57,11.15-24,24,.59,13.14,10.54,23.82,24,24Z" transform="translate(-138.6 -52.78)"/><path class="cls-1" d="M811.3,688c7.06-10.58,9.93-23.91,5.81-36.17A81.43,81.43,0,0,0,812,640.28c-1.7-3.23,2,6.41,1.21,2.88a10.43,10.43,0,0,0-.45-1.48c-1.39-3.35.47,7,.46,3.29s-1.35,6.83-.34,3c1-3.7-2.77,4.72-1,2.42a17.66,17.66,0,0,0,1.64-3,60,60,0,0,0,4.52-11.8,76.94,76.94,0,0,0,2.12-20.69c-.16-5.5-.85-11-1.37-16.44-.15-1.51-1-18-.4-17.94,1.11.16-2.32,6.38-1.92,6.07a14,14,0,0,0,1.83-3.07c1.58-2.83-4,4.6-.7.86l1.9-2.19c4.47-5.12,9.27-10.28,12.32-16.4,4.75-9.54,6.9-19.2,4.69-29.74a49,49,0,0,0-4.43-11.91c-.5-1-1-2-1.6-3s-1.2-1.92-1.84-2.85l1.14,3.27.71,4.27q-1.23,6.88-.16,3.26c-.11.35-2.94,5.53-1,2.67,1.13-1.64,2.15-3.42,3.19-5.12,4-6.55,6.81-14,6.57-21.82A36.26,36.26,0,0,0,832,484.65l-3.76-4.85q-2.29-3,1.27,1.67a13.81,13.81,0,0,0-1.5-2.19l-.64-1.15a12.27,12.27,0,0,1,1.91,6.68l-.55,3.43a20.94,20.94,0,0,1,.85-2.93c.53.2-2.31,4.7-.48,1.38,1-1.89,2-3.86,2.94-5.81a62.07,62.07,0,0,0,4.52-11.46,63.42,63.42,0,0,0,1.26-22.51c-.5-4.4-1.15-8.78-1.82-13.15-.2-1.26-.38-2.51-.58-3.77-.83-5.35.4,5.77.1.42-.11-2.11.57-6.9-.16-8.7,1.2,3-1.1,4.94-.22,2.2,2-6.34-1.9,2.93.12-.91,5.85-11.1,3.19-26.6-8.61-32.83-11.08-5.86-26.59-3.25-32.83,8.61-7.57,14.35-7,28.45-4.68,44q.5,3.38,1,6.77c.55,3.46-.62-6.33-.18-1.12.08,1,.19,2,.25,3,.12,2.07-.71,5.46-.09,7.35l.43-3.51a24.88,24.88,0,0,1-.7,2.83c-.86,4.26,2.44-4.37,0,0-8,14.56-12.68,31.49-2.6,46.5,1.6,2.4,3.64,4.82,5.35,7s-.48,1-1.29-1.68l.76,1.08q1.89,3.27-.67-2.32c.67,2.08-.18,2.85-.3-2.75l.53-4.16q-.83,2.55.44-.71c1.86-4.12.05-.45-.38.3-1.21,2.09-2.64,4-3.81,6.15a39.51,39.51,0,0,0-5.43,19.35,29.43,29.43,0,0,0,4.69,15.64c.87,1.43,1.77,2.91,2.68,4.31,2.47,3.78-.8-4.31,0,.35l-.37-3.2q-.07,3.19.18.08c.28-.69,2.54-6.17.66-2.55-.44.86-.87,1.7-1.37,2.52l-.78,1.2q-2.21,3.07,1.14-1.41c-1.45.45-3.75,4.29-4.76,5.47a105,105,0,0,0-7.35,9.36c-8.25,12.12-7.69,27.43-6.3,41.41.49,4.92,1.07,9.85,1.21,14.79,0,.64-.27,8-.21,8l.44-3.22c-.17,1-.38,2.08-.63,3.11l-.42,1.54q-1.27,3.67.74-1.21c-4.34,5.17-6.74,14.41-6.85,21-.12,7.37,1.93,13.12,5,19.65.61,1.31,1.23,2.63,1.9,3.92,1.26,2.45-.8,1.57-1.31-3.14a13.52,13.52,0,0,0,.72,2.35c1.31,3.42-.56-6.2-.48-3.41.14,4.68,1.73-6,.35-2.1-1.17,3.32,1.24-2.49,1.26-2.51-1.11,1.27-1.85,3.41-2.81,4.86-7,10.47-2.39,27,8.61,32.83,12.07,6.38,25.38,2.57,32.83-8.61Z" transform="translate(-138.6 -52.78)"/><path class="cls-1" d="M843.86,411.13c8.49-8.83,13.12-20.51,12-32.78a69.85,69.85,0,0,0-2.92-14.85c-.3-.92-.61-1.83-.93-2.74a15.45,15.45,0,0,1-.21,7.09,21.37,21.37,0,0,1,.83-2.8q-2.25,5.15-.64,1.6c2.13-4.58,4.43-9.23,5.55-14.19,1.6-7.11,1.11-13.92-.25-21-.43-2.23-1-4.4-1.61-6.6-.3-1.1-.57-2.2-.83-3.31-.51-2.67-.49-2.22.05,1.37-.05,5.64-.29,2.45.3.17q.78-3,1.46-6.1c7.62-34.36,6.6-73.12-15.75-102.12-4-5.19-7.75-9.22-14.34-11-5.75-1.58-13.4-.87-18.5,2.42-9.78,6.31-16.8,22.2-8.61,32.83a80.49,80.49,0,0,1,6.33,9.4q1.17,2.06,2.21,4.18c.46.94.9,1.88,1.32,2.84q-2.09-5-.68-1.42c1,3.2,2.11,6.33,2.88,9.6.41,1.75.71,3.52,1.08,5.28,1.1,5.32-.45-5.7,0-.28a129.81,129.81,0,0,1,.16,21c-.09,1.11-1,4.57-.55,5.47.5-3.53.61-4.35.34-2.49-.12.78-.24,1.56-.37,2.33-.59,3.62-1.31,7.22-2.13,10.8-1.16,5-3.21,10.29-3.2,15.47A64.52,64.52,0,0,0,808.92,336c.54,2.19,1.05,4.44,1.7,6.6,1.38,4.67-.17-5,0,.22.19,5.43.61-4.77-.18-.19q-1.37,3.62.69-1.54c-.43.92-.85,1.84-1.27,2.76-4.93,11-7.08,20.62-3.26,32.46.53,1.62,1,3.26,1.4,4.92,1.32,5.69.55-4.42,0,0-.6,5.14,1.36-5.91.24-.88q-1.17,3.58.78-1.85,3.57-4.15.85-1.25c-8.7,9.06-9.68,25.06,0,33.94,9.43,8.65,24.65,9.67,33.94,0Z" transform="translate(-138.6 -52.78)"/><path class="cls-1" d="M828.24,223.6c10.13-20.15,3.87-46.37-16.81-57.39-9.84-5.24-19.67-4.88-30.39-4.2-1,.07-2.07.06-3.1.1s-3.1-.61.21.14A16.05,16.05,0,0,1,784,164.8c2.51,1.64.64.51,0-.21,1.77,2,1.93,3,2.94,5.18-.28-.6-.47-1.25-.71-1.86-.68-1.76-1.35-3.51-2.06-5.26-5.5-13.51-11.64-26.43-24.44-34.55-13.68-8.66-30.1-7.61-45.33-5-.74.12-1.48.26-2.21.4-4.36.81,1.1-.27,1.64-.17-1.45-.27-3.43.37-4.94.46s-2.92.13-4.39.1c-.75,0-1.51-.08-2.25-.09-3.51,0,3.47.38,3.29.53-.35.32-2.61-.52-3.15-.67-5-1.37,2.4.62,2.28,1.17,0,0-2-1.2-2.25-1.27-2.28-.88,4.81,4.31,3.19,2.48-.36-.4-.84-.81-1.23-1.17-2.94-2.7,2.44,3.69,1.86,2.5-.34-.69-.87-1.34-1.24-2s-.67-1.49-1.09-2.16c-.26-.43,2.66,6.82,1.06,2.44-1.26-3.45-2.44-6.93-3.83-10.33-6.3-15.37-16.21-30.23-34-33.08-18.16-2.92-36.26.54-54.49,1.07-16.21.47-32.43,1.32-48.64.46-4.27-.22-8.58-1-12.84-1.08-.19,0,5.36.8,2.68.36-1.21-.2-2.43-.37-3.64-.58-1.91-.33-3.82-.71-5.71-1.13a92.84,92.84,0,0,1-10.83-3.1,16.05,16.05,0,0,0-2.57-1c1.53.19,5,2.26,1.4.53-1.8-.86-3.54-1.82-5.25-2.83-10.82-6.4-26.81-2.81-32.84,8.61s-2.94,26,8.61,32.83c24.11,14.26,53.62,16,81,15.7,12-.13,24-.7,36-1,7.4-.17,14.71-1.18,22.07-1.84,3.57-.31,7.15-.55,10.74-.51,1.06,0,4.34-.42,5.3.27-3.46-.53-3.85-.55-1.15-.08,1.15.24,2.3.53,3.43.87l-10.59-6.17a36.14,36.14,0,0,1,3.55,3.1c.41.42.79.94,1.22,1.31,2.59,2.28-2.67-3-2.12-2.83,1.64.58,3.37,5.61,4.11,7.1,1.51,3.07-2.56-6.61-.91-2.1.39,1.09.8,2.17,1.19,3.25.79,2.2,1.56,4.4,2.42,6.57,3,7.55,6.36,14.61,12.59,20.15,8.17,7.27,17.55,10.24,28.22,11.4a55.47,55.47,0,0,0,10.78,0c3.88-.34,7.76-.9,11.6-1.48,1.31-.2,2.6-.43,3.91-.65,2-.35,6.31-.05-.83,0,3.3,0,6.58-.42,9.9-.38,4.91,0-6.29-1.68-1.17-.11a15,15,0,0,0,1.69.47c3.61.62-5.52-3-2.63-1.17,1,.67,4.92,3.33,1,.28s-.37.14.55.91c2.39,2-2.61-2.64-2.13-2.87a18.28,18.28,0,0,1,1.27,1.83,47.54,47.54,0,0,1,2.4,4.15c.73,1.4,1.37,2.84,2.05,4.27,1.54,3.28-1.07-2.56-1.08-2.6.34.95.76,1.87,1.13,2.8,2.9,7.3,5.38,14,10.48,20.12,6.78,8.17,16.32,11.88,26.68,12.73,1.55.13,16.34,0,16.51-.71-.07.31-5.72-1.35-2.08-.26,4.29,1.28-5.13-2.74-1.33-.44-4.8-2.91-3.4-2.82-2-1.46,3.07,3.1-2.66-4.63-.78-1,1.74,3.36-.86-2.2-.84-2.4a19.32,19.32,0,0,1,.69,2.36l-.46-4c-.15.63-.34,5.24.37.43q.6-3.57,0-.81-1.15,3.53,1-2.34c-5.63,11.2-3.35,26.52,8.61,32.84,10.89,5.75,26.81,3.36,32.83-8.61Z" transform="translate(-138.6 -52.78)"/><path class="cls-1" d="M542.53,81.45c-24.86-21.36-56.09-30.57-88.67-28.34-29.32,2-57.37,10.53-84.62,21.1-6,2.33-11,5.28-14.34,11-3,5.15-4.29,12.73-2.42,18.49,3.67,11.35,17,21.63,29.52,16.77,11.9-4.62,23.93-8.93,36.21-12.42,6.3-1.79,12.66-3.37,19.08-4.66,2.95-.6,5.92-1.1,8.89-1.59,5.05-.83-5.17.55-.45,0,1.72-.19,3.45-.39,5.18-.54a135.42,135.42,0,0,1,18.35-.43c1.44.07,2.89.16,4.34.28.81.07,7.12.69,2.55.22s1.64.34,2.48.5c1.41.28,2.81.59,4.21.93,2.78.67,5.54,1.48,8.26,2.42.72.25,6.52,2.52,2.51.86s1.71.87,2.41,1.23a84.54,84.54,0,0,1,7.67,4.41c1.27.82,2.48,1.71,3.73,2.56q3.06,2.3-1.22-.94c.81.65,1.6,1.32,2.39,2,9.51,8.17,24.72,10,33.94,0,8.25-9,10.16-25.2,0-33.94Z" transform="translate(-138.6 -52.78)"/><path class="cls-1" d="M435.15,334.25a94.89,94.89,0,0,0,48.54-10.85,94.35,94.35,0,0,0,40.55-26.06,94.41,94.41,0,0,0,26.06-40.55,94.89,94.89,0,0,0,10.85-48.54l-4.5-33.5a125.91,125.91,0,0,0-32.41-55.6l-25.5-19.7a125.37,125.37,0,0,0-63.59-17.2A94.85,94.85,0,0,0,386.6,93.1a94.54,94.54,0,0,0-40.55,26.05A94.54,94.54,0,0,0,320,159.7a94.85,94.85,0,0,0-10.85,48.55l4.5,33.49a125.93,125.93,0,0,0,32.4,55.6l25.5,19.71a125.54,125.54,0,0,0,63.6,17.2Z" transform="translate(-138.6 -52.78)"/><path class="cls-1" d="M438.56,329.87q36.13,2.79,72.09,7.6L477.15,333q13.59,1.85,27.15,4l33.49-247.5-76.23-9.06,126,126a10.68,10.68,0,0,1-.12-2.88l-4.5,33.5a11.33,11.33,0,0,1,.65-2.82l-12.7,30.1a10.78,10.78,0,0,1,1.34-2.56l-19.7,25.5a10.07,10.07,0,0,1,2-2.11L376.3,106.88a83,83,0,0,1-9.33,8.55l25.5-19.7a60,60,0,0,1-11.63,6.76l30.1-12.7a57,57,0,0,1-13.58,3.55l33.49-4.51c-10.3,1.2-20.66-.29-31,.92-29.21,3.44-49.14,5.11-75,21.17-21.79,13.53-36.12,27.93-49.83,49.6-2,3.16-3.62,6.52-5.82,9.55l19.7-25.5c-3.36,4.13-7.52,7.4-11.16,11.25-4.4,4.64-8.18,10.23-11.95,15.12-3,3.83-8.38,10.17-11.75,15.36-6.24,9.62-14.75,33.45-15.66,35.88-3.72,10-5,20.62-9.05,30.51l12.7-30.1a88.74,88.74,0,0,1-11.25,19l19.7-25.5a91.17,91.17,0,0,1-14.62,14.57l25.5-19.7a86.39,86.39,0,0,1-19.06,11.12l30.1-12.7c-.91.37-1.83.73-2.75,1.07l-30.1,12.7a95.28,95.28,0,0,0-35.35,32.45A62.9,62.9,0,0,0,188,283.4,95,95,0,0,0,177.16,332c-.89,20.32,5.92,40.44,3.19,60.84l4.5-33.5a32,32,0,0,1-1.59,6.41L196,335.6a17,17,0,0,1-1.63,3l19.7-25.5a10.64,10.64,0,0,1-1.7,1.72l25.5-19.7a48.62,48.62,0,0,1-5.17,2.55c-.94.49-1.84,1-2.75,1.56a17.93,17.93,0,0,0-1.52,1.06L202.89,320c-.94.85-1.72,1.62-2.58,2.55L180.61,348l-.69,1A91.35,91.35,0,0,0,173,365.18q-3.53,8.07-6.83,16.24c-.26.91-.4,1.81-.61,2.73-.67,2.91-1.4,5.78-1.92,8.73-2.27,13.13-4.28,26.72-5.29,40-1.18,15.58,2.81,33.77,4.92,47.84a81.13,81.13,0,0,0,3.29,13.81c4.81,14.35,11.2,28.3,17.51,42,4.42,9.63,9.59,18.91,14.16,28.46L185.5,535c.44,1.71.79,3.39,1.08,5.14l-4.5-33.49c.83,6.47.57,12.94.78,19.44.42,13.82,2.9,28.1,5.12,41.37a45.87,45.87,0,0,0,2.38,8.92c3.89,10.39,8.68,22.07,13.58,32,.52,1,1.08,2.08,1.69,3.08,6.51,10.74,17.69,23.72,23.76,31.31,3.28,4.1,6.76,8,10,12.16l-19.7-25.5a50.56,50.56,0,0,1,6.45,10.72L213.44,610c.5,1.33.91,2.62,1.28,4l-4.5-33.5c1.11,10.71-.92,21.19-.48,31.86.64,15.46,1.81,31.82,7.25,46.49,2.6,7,9.56,25.81,15.85,36.31,7.23,12.07,17,23.05,25.63,33.78l-19.7-25.5c19.66,26.42,38.62,53.37,58.4,79.7,25.76,34.27,51.84,68.8,81.62,99.75q1.88,2,3.76,3.87c.63.64,1.25,1.28,1.89,1.92,16.85,16.76,22.87,19,41.18,26.69,7.75,3.27,12.33,5.94,19.47,7.37,12.76,2.57,26,3.83,38.88,5.39a186.76,186.76,0,0,0,24.81,1c8.25-.1,16.42-.05,24.66.42a34.64,34.64,0,0,0,5-.16c6.57-.58,27.9-3.18,34.18-4.64.68-.15,1.34-.31,2-.49,26.64-7.26,41-18.61,61.72-35.5,6-4.9,10.85-11.54,15.92-17.39q8.09-9.33,15.92-18.85c16.88-20.52,33.12-41.6,49-62.9q16.67-22.35,32-45.61,7.81-11.82,15.27-23.86c4.35-7,8-15,13-21.5l-19.7,25.5a23.06,23.06,0,0,1,2.27-2.26l-25.5,19.7a16.28,16.28,0,0,1,3.48-2.06l-30.1,12.7a7.69,7.69,0,0,1,1.77-.46l-33.49,4.5a5.57,5.57,0,0,1,1.68,0l-33.49-4.5.79.21-30.1-12.7a4.1,4.1,0,0,1,1.42.87L591,720.44l.62.68-19.71-25.5a7.08,7.08,0,0,1,1,1.88l-12.71-30.1.36,1.22a95,95,0,0,0,22.55,42.85,95.3,95.3,0,0,0,35.35,32.46,93.87,93.87,0,0,0,46.85,15,95.48,95.48,0,0,0,50.25-2.25l30.09-12.7a126.62,126.62,0,0,0,45.21-45.21l12.7-30.1a126.91,126.91,0,0,0,0-67c-.34-1.83-.64-3.65-.89-5.49l4.5,33.49a108.51,108.51,0,0,1,.33-25.66L803,637.46c2.1-15.57,6.51-30.64,10.25-45.86,1.82-7.38,3.44-14.8,4.61-22.31,2.87-18.4,5.58-37,7-55.61,2.36-31.82,1.4-63.67,5.58-95.38l-4.5,33.5c3.09-22.9,7.56-45.59,11.06-68.42,3.33-21.73,6.56-43.53,8.48-65.43.46-5.34.82-10.69,1-16,.4-10.7-.79-18.94-2.29-30.07-1.06-7.9-1.42-16.57-4.08-24.31a321.32,321.32,0,0,0-14-33.33,55.81,55.81,0,0,0-2.68-5c-8.83-14.4-19.55-28.42-31.91-40.1-12.88-12.18-27.36-22.84-42-32.77a201.46,201.46,0,0,0-19.93-11.8c-16.51-8.6-34-15.49-51.23-22.45a192.32,192.32,0,0,0-20.09-7,126.91,126.91,0,0,0-67,0,94.86,94.86,0,0,0-42.85,22.55A95.19,95.19,0,0,0,515.9,153a125.38,125.38,0,0,0-17.2,63.6,798.64,798.64,0,0,1-6.46,116.6l4.5-33.49c-6.41,46.92-17.81,93.16-36.23,136.87l12.7-30.09c-3,7-5.67,14.54-10.29,20.69l19.7-25.51a33.23,33.23,0,0,1-5,5.06l25.5-19.7a30.4,30.4,0,0,1-5.7,3.39l30.1-12.71a32.22,32.22,0,0,1-7.21,2l33.5-4.5A42.51,42.51,0,0,1,543,375.2l33.5,4.5a70.26,70.26,0,0,1-16.69-4.81l30.09,12.7a127.31,127.31,0,0,1-27.18-16.31L588.22,391a132.62,132.62,0,0,1-23.57-23.42l19.7,25.5a60.64,60.64,0,0,1-6.81-11.55l12.7,30.1a46.2,46.2,0,0,1-3.11-11l4.5,33.5a39.41,39.41,0,0,1-.09-9.21l-4.5,33.5a35.47,35.47,0,0,1,2.38-8.94l-12.7,30.1a33.49,33.49,0,0,1,4-6.73L561,498.34a30.39,30.39,0,0,1,4.65-4.7l-25.5,19.7a26.42,26.42,0,0,1,5.37-3.19l-30.1,12.7a22.13,22.13,0,0,1,5.12-1.43l-33.5,4.5a20.54,20.54,0,0,1,4.57,0l-33.5-4.5a19.45,19.45,0,0,1,4.49,1.19l-30.1-12.7a20.81,20.81,0,0,1,4.27,2.51l-25.5-19.7a25.88,25.88,0,0,1,3.91,3.92l-19.7-25.5a36.17,36.17,0,0,1,4.24,7.27L387,448.27a64.28,64.28,0,0,1,4.13,15.66l-4.5-33.49a41.3,41.3,0,0,1-.08,10l4.5-33.5a35.47,35.47,0,0,1-2,7.51l12.71-30.1a27.18,27.18,0,0,1-2.59,4.62l19.7-25.5a22.56,22.56,0,0,1-2.8,3l25.5-19.7a19.48,19.48,0,0,1-3.49,2.15l30.1-12.7a19.76,19.76,0,0,1-4.2,1.13l33.49-4.5a17.18,17.18,0,0,1-2.38.13l33.5,4.5a25.06,25.06,0,0,1-4.42-1.18l30.1,12.7a20,20,0,0,1-3.54-2l25.5,19.7a19,19,0,0,1-2.72-2.73l19.7,25.5a21,21,0,0,1-2.35-4.22l12.7,30.1a28.76,28.76,0,0,1-1.45-5.92l4.5,33.5a42.39,42.39,0,0,1,.15-9.75l-4.5,33.49a52.57,52.57,0,0,1,3.38-12.38l-12.71,30.1c6.06-13.85,11.35-27.9,17.15-41.8l-12.7,30.1c4.06-9.62,8.77-19.23,15.09-27.59l-19.7,25.5a35.56,35.56,0,0,1,5.67-6l-25.5,19.7a16.28,16.28,0,0,1,2.52-1.56l-30.1,12.71a9.59,9.59,0,0,1,1.95-.61l-33.49,4.5a8.31,8.31,0,0,1,1.41,0l-33.49-4.5a7.45,7.45,0,0,1,1.37.35L453,482.45a8.58,8.58,0,0,1,1.31.76l-25.5-19.7a11,11,0,0,1,1.64,1.7l-19.7-25.5a20.24,20.24,0,0,1,1.87,3.34L399.91,413c2.32,5.62,3.22,12,4.4,17.92q2,10.2,3.39,20.52l-4.5-33.5a349,349,0,0,1-.2,91.61L407.5,476a347.35,347.35,0,0,1-23.69,86.7l12.7-30.1q-5.1,12-11.05,23.52a93.79,93.79,0,0,0-15,46.85,95.44,95.44,0,0,0,2.25,50.24l12.71,30.1a95.14,95.14,0,0,0,32.45,35.36,63.09,63.09,0,0,0,27.8,16.2,94.91,94.91,0,0,0,48.54,10.85l33.5-4.5a125.91,125.91,0,0,0,55.6-32.41,38.56,38.56,0,0,1,3.59-3.17l-25.5,19.7a36,36,0,0,1,6.13-3.57l-30.1,12.7a40.11,40.11,0,0,1,9.12-2.6l-33.5,4.51a43.21,43.21,0,0,1,10.78,0l-33.5-4.5a42.5,42.5,0,0,1,10.37,2.88L470.64,722a40.28,40.28,0,0,1,7.17,4.2l-25.5-19.71a36,36,0,0,1,5.87,5.84l-19.7-25.5c.71,1,1.37,2,2,3l108.8-189.59a107.09,107.09,0,0,1-13.27-.95l33.5,4.5A107.59,107.59,0,0,1,544,496.66l30.1,12.71a112,112,0,0,1-23-13.35l25.5,19.7a108.67,108.67,0,0,1-18.91-18.64l19.7,25.5a105.09,105.09,0,0,1-9.59-14.91,95.28,95.28,0,0,0-32.45-35.35,94.93,94.93,0,0,0-42.85-22.56,95.48,95.48,0,0,0-50.25-2.25,93.72,93.72,0,0,0-46.84,15l-25.51,19.7a125.93,125.93,0,0,0-32.4,55.6L333,571.26a125.48,125.48,0,0,0,17.2,63.6A101.48,101.48,0,0,0,358,647.41c8.88,12.13,17.79,24.77,28.26,35.68a104.65,104.65,0,0,0,10.39,9.46c11.78,9.37,23.48,19.45,36.42,27.32a112.47,112.47,0,0,0,12.46,6.5c13.8,6.21,27.95,13,42.59,17.28a107.39,107.39,0,0,0,14.42,3.14c15.33,2.34,31.12,5.31,46.76,5.45,44.3.4,86.53-24.35,108.8-62.41,22.39-38.27,23.4-89,0-127.19-7-11.47-15.14-22.72-24.88-32-4.59-4.39-11.19-8.86-15.45-12.16-4.44-3.42-10.23-8.53-15.69-11.85-26.46-16.07-48.27-19.21-78.19-22.27a45.35,45.35,0,0,0-8.4-.22c-13.8,1.13-28.34,1.83-41.67,6.1-26.69,8.56-48.67,20.42-68.64,40.41L603.05,683.32c11.07-21.45,20.43-43.91,28.89-66.5a340.63,340.63,0,0,0,12.16-39.75c5.74-23.87,8.62-48.42,11.57-72.73a346.94,346.94,0,0,0,2.5-41.51,340.56,340.56,0,0,0-2.53-41.5c-2.14-17.43-4.22-35-7.37-52.34-1.22-6.75-2.31-13.79-4.35-20.34-7.55-24.18-18.06-44.54-36.09-62.58a132.44,132.44,0,0,0-93.08-38.8c-36.12,0-76.23,16.14-99.68,44.44-12.36,14.93-23.84,29.15-32.05,46.47-7.28,15.33-15.07,30.9-19.6,47.29l12.7-30.09a374.09,374.09,0,0,0-14.61,34.75,50.69,50.69,0,0,0-1.82,6.79,331.71,331.71,0,0,0-5.24,39,42.08,42.08,0,0,0,.14,7,343.4,343.4,0,0,0,4.83,35.55,30.13,30.13,0,0,0,.78,2.93c1.6,5.16,7.16,17.09,6.7,16-2.76-6.54,4.35,11.48,6.73,16,.61,1.15,1.25,2.22,2,3.31,1.87,2.86,17.79,23.51,20,25.87.33.35.62.74,1,1.08s.73.64,1.08,1c2.15,2,23.24,18.33,25.88,20,.86.54,1.67,1.1,2.57,1.58,4.56,2.47,20.33,8.6,16,6.79.2.08,11.29,5.45,16.61,6.89,6.31,1.71,13.58,2.08,19.61,2.89,21.39,2.88,14.49,2.74,35.87-.13,5.61-.75,13.24-1.16,19.46-2.84.51-.14,1-.37,1.49-.55l30.1-12.7.94-.45c.9-.52,1.71-1.1,2.55-1.7,3.6-2.57,22.83-17.05,25.88-20,.37-.35.75-.68,1.11-1.06s.66-.79,1-1.17c3.32-3.8,17.15-21.6,20-25.91a34.73,34.73,0,0,0,1.91-3.15c.26-.48.45-1,.68-1.47,3-6.41,10.56-24,12.9-30.61.37-1,.74-2.07,1-3.14s.49-2.19.7-3.3a359.12,359.12,0,0,0,4.84-36.3,41.39,41.39,0,0,0,0-6.68c-.87-11.05-2.8-24.71-4.77-35.63-.25-1.33-.49-2.67-.77-4-3.08-14.9-10.35-30.07-17-43a37.3,37.3,0,0,0-2.91-4.65c-5.85-8.25-13.93-19.33-20.76-26.8-.63-.69-1.27-1.35-1.95-2-.27-.27-.58-.49-.86-.74-2.8-2.49-22.6-17.73-25.8-19.94-.6-.41-1.17-.86-1.79-1.24s-1.23-.67-1.85-1c-4.61-2.39-22-9.3-15.68-6.63,3.85,1.63-11-5.21-16-6.71-6.51-1.93-13.85-2.21-20.29-3.08-7.18-1-13.66-2.62-20.66-2.29a323.3,323.3,0,0,0-34.79,4.68c-.65.15-1.3.26-1.94.44s-1.27.42-1.9.63c-5,1.74-18.84,7.94-15.68,6.61-.43.18-11.1,4.24-16,6.77a34.89,34.89,0,0,0-3.58,2.14,315.4,315.4,0,0,0-26.64,20.57c-.64.56-1.29,1.09-1.9,1.69s-1,1.07-1.52,1.62c-7.12,7.86-14.47,18.06-20.66,26.66a38.85,38.85,0,0,0-2.93,4.56c-.37.71-.69,1.45-1,2.17-4.63,9.92-9.68,21.28-13.3,31.62a36.55,36.55,0,0,0-1.45,5.26c-1.15,6.17-1.84,13.39-2.58,18.9s-2.09,12.69-2.45,19a43.35,43.35,0,0,0,.17,6c.95,10.89,2.77,24.68,4.77,35.42.18,1,.35,2,.59,2.95A49.48,49.48,0,0,0,347,478.1c4.61,11.78,9,24.17,15.22,35.29a67.7,67.7,0,0,0,4.51,6.87c8.63,11.84,17.56,24.1,27.67,34.88a128.17,128.17,0,0,0,9.86,9.36c11.49,9.86,23.61,19.09,35.94,27.87,16.56,11.79,35.9,19,54.69,26.37A68.07,68.07,0,0,0,508,622.46c11.43,2,24,3.59,35.53,4.8,1,.11,2,.22,3,.28a44.55,44.55,0,0,0,6.33-.17,350.4,350.4,0,0,0,35.38-4.78c1.08-.22,2.14-.44,3.2-.76.9-.26,1.76-.6,2.64-.93,5.59-2.06,25.08-10.21,30.53-12.88.56-.27,1.14-.5,1.69-.81.83-.45,1.64-.93,2.44-1.45.41-.25.78-.56,1.18-.84,5-3.43,21.24-16,25.89-20a41.76,41.76,0,0,0,4.67-4.64,329.87,329.87,0,0,0,21-27.24c.64-.94,1.26-1.89,1.83-2.88,1.51-2.65,2.67-5.48,3.91-8.26q10.89-24.31,20.7-49.12,8.21-20.87,14.42-42.45c11.46-39.55,17.09-79.93,22.37-120.7a761.8,761.8,0,0,0,6-90.69c.08-7.44,0-14.89,0-22.34L591.2,338.11a203.28,203.28,0,0,1,23.32,8.3l-30.1-12.7c15.88,6.75,31.26,14.94,45,25.39L604,339.4a101.18,101.18,0,0,1,17.84,17.19l-19.7-25.5a55.91,55.91,0,0,1,7,11.68l-12.71-30.1a38.46,38.46,0,0,1,2.55,9.41l-4.5-33.49c.8,7.47.05,15.28-.47,22.76-.6,8.81-1.57,17.58-2.73,26.34l4.5-33.5c-5.81,42.87-14.59,85.13-19,128.24-3.39,33.09-1.37,66.52-5.8,99.53l4.5-33.49c-2.59,18.22-8,35.75-12,53.66a421,421,0,0,0-8.46,57.34c-1.68,19.7,2.1,40,5.65,59.15l243-67c-6.65-22.77-17.46-42.57-34.37-59.38a131.16,131.16,0,0,0-91.72-38c-36.22-.13-71.3,15-96.81,40.53-16.74,16.74-27.48,38.47-40.08,58.24q-24.06,37.77-51.48,73.24l19.71-25.5q-12.32,15.9-25.23,31.3-6.46,7.69-13.09,15.25c-3.91,4.47-7.63,9.59-12.32,13.26l25.5-19.7a27.63,27.63,0,0,1-4.83,2.65l30.1-12.71a27.67,27.67,0,0,1-4,1.08l33.49-4.5c-4.32.53-8.68-.16-13-.29-4.62-.13-9.24-.07-13.85,0-9.53.12-19,.21-28.5-1l33.5,4.5c-3-.46-5.95-1-8.9-1.79l55.6,32.4c-20.79-20.94-39.71-43.6-57.75-66.94l19.71,25.5c-30.55-39.64-58.34-81.38-89.73-120.38l19.7,25.5a60.64,60.64,0,0,1-7.9-13L460,591.87a41.1,41.1,0,0,1-2.43-9.14l4.5,33.5c-1.3-11.11,1.32-22.26.38-33.41-2.92-34.94-4.67-39-18.7-69.88a50.52,50.52,0,0,0-4.77-8.45c-9.81-13.86-20.9-26.65-31.39-39.94l19.7,25.51a53.91,53.91,0,0,1-6.63-10.8l12.7,30.1a43.45,43.45,0,0,1-2.5-9.79l4.5,33.5c-.71-6.47-.41-12.94-.67-19.43-.56-13.77-2.81-28.47-5.25-41.38-2.49-13.25-9.18-25.29-15.07-37.37-4.9-10-10.39-19.81-14.77-30.1l12.71,30.1a88.36,88.36,0,0,1-6.16-21.84l4.5,33.49a74.86,74.86,0,0,1,.22-18.5l-4.5,33.5c.72-4.72,1.46-9.88,3.26-14.32l-12.7,30.1a11.23,11.23,0,0,1,1.28-2.1l-19.7,25.5a20.72,20.72,0,0,1,2.58-2.55l-25.5,19.7a39.84,39.84,0,0,1,6-3.46A98.51,98.51,0,0,0,391,492.63c.41-.44.82-.92,1.24-1.35,3.39-3.49,18-22.2,20.24-26.31l.81-1.51c3.3-6.29,11.12-24.69,13.25-31.47a43.23,43.23,0,0,0,1.12-4.38,371.21,371.21,0,0,0,5-37.65,93.11,93.11,0,0,0,.17-11.81c-.57-15.35-4.36-30.85-3.69-46.2l-92.5,121.5C353.61,447,373,440.27,388,429c11.4-8.56,23.65-16.84,33.83-27,10.36-10.32,18.81-22.78,27.47-34.4a88.49,88.49,0,0,0,6.82-10.53c1.06-1.94,2-3.93,2.95-5.95,5.07-11.19,10-22.7,14.39-34.19,3.44-9,4.48-18.75,7.95-27.76l-12.7,30.09a37.55,37.55,0,0,1,4.85-8.39l-19.7,25.5c3.61-4.24,8.06-7.64,11.74-11.81,8.5-9.6,16.86-19.6,23.43-30.63,1.5-2.54,2.82-5.12,4.55-7.52l-19.71,25.5,1-1.21-25.5,19.7a30.15,30.15,0,0,1,6.34-3.79l-30.1,12.7a35.85,35.85,0,0,1,7.76-2.07l-33.5,4.5a106.69,106.69,0,0,1,15.89-.41c16.51.33,31.82-2.54,48.56-5a61,61,0,0,0,8.56-1.76c1.71-.5,3.36-1.14,5-1.78,10.83-4.21,22.19-8.78,32.65-13.85a62.91,62.91,0,0,0,9.08-5.62c11.09-8,24.78-17.63,34.83-28.24a94.42,94.42,0,0,0,26-40.56A94.79,94.79,0,0,0,591.39,196a94.85,94.85,0,0,0-10.85-48.55,94.44,94.44,0,0,0-26-40.55L529,87.18A125.38,125.38,0,0,0,465.39,70l-33.49,4.5a125.93,125.93,0,0,0-55.6,32.4c-15.82,14.83-21.71,27.1-29.36,45.23-3.72,8.82-5.61,11.13-7,17.86l-4.5,33.5a10.68,10.68,0,0,0,.12,2.88,94.85,94.85,0,0,0,10.85,48.55,94.39,94.39,0,0,0,26,40.55l25.5,19.7a125.38,125.38,0,0,0,63.6,17.2l76.23,9.06a95,95,0,0,0,48.55-10.85,94.56,94.56,0,0,0,40.55-26.06l19.7-25.5a93.74,93.74,0,0,0,14.95-46.84,63.47,63.47,0,0,0,0-33.5,93.78,93.78,0,0,0-14.95-46.85l-19.7-25.5a126,126,0,0,0-55.6-32.4c-44-6.84-88.3-12.6-132.73-16A94.85,94.85,0,0,0,390,88.72a94.44,94.44,0,0,0-40.55,26.05,94.48,94.48,0,0,0-26,40.55,94.85,94.85,0,0,0-10.85,48.55l4.5,33.49a125.93,125.93,0,0,0,32.4,55.6l25.5,19.7a125.42,125.42,0,0,0,63.6,17.21Z" transform="translate(-138.6 -52.78)"/><path class="cls-1" d="M309.1,311.62C322,302.42,336,295,349.2,286.21c22.39-14.88,40.66-31.1,55.49-53.62L284.06,216.82a4.71,4.71,0,0,1,.29,1L282,200.24a7.87,7.87,0,0,1,0,1.61l2.36-17.54a19.4,19.4,0,0,1-1.25,4.21l6.65-15.77c-5.39,12.61-14.85,23.78-23.1,34.59-7.83,10.26-15.45,20.48-22.6,31.2l10.32-13.35a22,22,0,0,1-3.67,3.73l13.36-10.32a21.76,21.76,0,0,1-3.19,1.8l15.77-6.65a21.88,21.88,0,0,1-3.46.95l17.55-2.35a21.26,21.26,0,0,1-4.85,0l17.55,2.36a24.45,24.45,0,0,1-4.89-1.42l15.76,6.65a29.65,29.65,0,0,1-4.69-2.8L323,227.45l-1.11-.91A49.49,49.49,0,0,0,300.6,212.9a49.73,49.73,0,0,0-25.42-5.69c-16.19,0-35.53,7.19-46.67,19.33-11.55,12.58-20.12,29.1-19.33,46.67.73,16.47,6,35.79,19.33,46.67,6,4.93,12.09,10.56,19.16,14,13.14,6.45,24.63,10.06,39.43,10.57a31.29,31.29,0,0,0,3.62-.13c6.45-.53,13.58-1.16,19.87-2.91a86.92,86.92,0,0,0,9-3.73c.43-.19,6.45-2.41,9-3.84a91,91,0,0,0,15.95-12c9.31-8.59,15.32-20.52,22.91-30.66,10.83-14.48,22.71-28.4,32.09-43.9a122,122,0,0,0,11.3-24.87c.2-.62.39-1.23.56-1.86A90.74,90.74,0,0,0,414,201.64c0-.47,0-.93,0-1.4,0-.65-2.25-17.16-2.39-17.71a5.74,5.74,0,0,0-.26-.8L404.69,166l-10.32-13.36L381,142.29a49.13,49.13,0,0,0-24.54-7.83,33.25,33.25,0,0,0-17.54,0,32.92,32.92,0,0,0-16.66,4.5,33,33,0,0,0-14.56,8.49,49.93,49.93,0,0,0-17,18.52c-1.1,1.66-2.24,3.29-3.44,4.89l10.32-13.36a102.93,102.93,0,0,1-18,17.62L293,164.8c-16,12.25-34.15,21.17-50.52,32.84a49.74,49.74,0,0,0-18.51,17,49.69,49.69,0,0,0-11.82,22.44A50.05,50.05,0,0,0,211,263.4a49.11,49.11,0,0,0,7.84,24.54c9.08,14.09,22.61,26.5,39.44,30.33,16.42,3.74,36.58,3.52,50.86-6.65Z" transform="translate(-138.6 -52.78)"/><path class="cls-2" d="M144.25,386.41" transform="translate(-138.6 -52.78)"/><path class="cls-3" d="M528.11,113.71c-5.75-5.95-12-11.07-19.65-14.26-2.51-1-5.47,1.13-6.15,3.49-.82,2.87,1,5.12,3.5,6.15,6,2.48,10.8,7.11,15.23,11.69s11.54-2.44,7.07-7.07Z" transform="translate(-138.6 -52.78)"/><path class="cls-3" d="M517.14,103.77c-6.52-3.82-12.83-8.08-20.33-9.65-6.28-1.32-9,8.32-2.66,9.64,6.67,1.4,12.15,5.25,17.94,8.64,5.56,3.26,10.6-5.38,5-8.63Z" transform="translate(-138.6 -52.78)"/><path class="cls-3" d="M477.66,99.7a32.17,32.17,0,0,1,13.52,2.56c2.49,1.1,5.34.71,6.84-1.79,1.26-2.11.67-5.76-1.8-6.84a43.84,43.84,0,0,0-18.56-3.93c-6.43.1-6.45,10.1,0,10Z" transform="translate(-138.6 -52.78)"/><path class="cls-3" d="M532.82,140.89v-17.4c0-6.43-10-6.45-10,0v17.4c0,6.44,10,6.45,10,0Z" transform="translate(-138.6 -52.78)"/><path class="cls-3" d="M519.12,118.29a8.49,8.49,0,0,0,1.89,2.28,5.12,5.12,0,0,0,5.46,1c1.67-.7,3.28-2.62,3.07-4.57l0-.55-9.82,1.32a13.74,13.74,0,0,0,2.38,4.24c1.22,1.54,3.83,1.72,5.47,1a5.09,5.09,0,0,0,3.07-4.57l0-.74-9.32,2.52c.4.56.81,1.1,1.2,1.66.18.25.36.51.52.77s.63,1.29.15.12a5.5,5.5,0,0,0,2.3,3,5.13,5.13,0,0,0,3.85.51c2.32-.75,4.57-3.57,3.5-6.16a24.28,24.28,0,0,0-2.88-4.93c-1.26-1.76-3.42-3-5.65-2.3a5.2,5.2,0,0,0-3.67,4.82l0,.74,8.53-3.53c.39.5.43.52.13,0,.22.61.24.66.06.13a5.05,5.05,0,0,0-5.49-3.59c-2.25.31-4.59,2.44-4.33,4.92l0,.55,8.54-3.53a3.57,3.57,0,0,1-.51-.45c.41.59.47.65.18.2a5,5,0,1,0-8.63,5Z" transform="translate(-138.6 -52.78)"/><path class="cls-3" d="M523,142.25q-.79,26.5-1.32,53c-.13,6.44,9.87,6.44,10,0q.52-26.5,1.32-53c.19-6.44-9.81-6.43-10,0Z" transform="translate(-138.6 -52.78)"/><path class="cls-3" d="M522.33,193.82c-1.62,3.16-1.39,6.23-1.37,9.65a5,5,0,1,0,10,0c0-1.06-.1-2.12-.11-3.18,0-.17.06-1.52,0-1-.08.68.61-1.36.12-.41,1.2-2.32.68-5.53-1.79-6.84-2.29-1.21-5.57-.69-6.84,1.79Z" transform="translate(-138.6 -52.78)"/><path class="cls-3" d="M521.7,196.53q-.26,12.15-1.27,24.26c-.53,6.41,9.47,6.37,10,0q1-12.12,1.27-24.26c.13-6.44-9.87-6.44-10,0Z" transform="translate(-138.6 -52.78)"/><path class="cls-3" d="M521.54,207.62q-.24,11.06-1.13,22.09c-.53,6.41,9.48,6.38,10,0q.89-11,1.13-22.09c.14-6.44-9.86-6.44-10,0Z" transform="translate(-138.6 -52.78)"/><path class="cls-3" d="M521.11,221.5v12.81c0,6.43,10,6.44,10,0V221.5c0-6.43-10-6.44-10,0Z" transform="translate(-138.6 -52.78)"/><path class="cls-3" d="M520.75,235v5.14a5,5,0,0,0,10,0V235a5,5,0,1,0-10,0Z" transform="translate(-138.6 -52.78)"/><path class="cls-3" d="M521,242.51l-.21,3.16a5,5,0,0,0,1.47,3.53,5.1,5.1,0,0,0,3.53,1.47,5,5,0,0,0,3.54-1.47,5.47,5.47,0,0,0,1.46-3.53l.21-3.16A5,5,0,0,0,529.5,239a5,5,0,0,0-7.08,0,5.47,5.47,0,0,0-1.46,3.53Z" transform="translate(-138.6 -52.78)"/><path class="cls-3" d="M520.84,247.29a22.06,22.06,0,0,1-.18,3.25,5,5,0,0,0,1.46,3.53,5,5,0,0,0,7.07,0l.78-1a5,5,0,0,0,.69-2.52,22.06,22.06,0,0,0,.18-3.25,5.18,5.18,0,0,0-1.46-3.53,5,5,0,0,0-8.54,3.53Z" transform="translate(-138.6 -52.78)"/><path class="cls-3" d="M520.57,250.63c0,1.71-.06,3.42-.19,5.14a5,5,0,0,0,5,5,5.14,5.14,0,0,0,5-5c.13-1.72.19-3.43.19-5.14a5,5,0,0,0-10,0Z" transform="translate(-138.6 -52.78)"/><path class="cls-3" d="M520.4,254.41q0,3.93-.39,7.85c-.23,2.61,2.46,5.11,5,5a5.13,5.13,0,0,0,5-5q.35-3.92.39-7.85a5,5,0,1,0-10,0Z" transform="translate(-138.6 -52.78)"/><path class="cls-3" d="M520.4,260l-.85,12.62c-.18,2.69,2.43,5,5,5a5.09,5.09,0,0,0,5-5L530.4,260c.18-2.7-2.43-5-5-5a5.09,5.09,0,0,0-5,5Z" transform="translate(-138.6 -52.78)"/><path class="cls-3" d="M519.91,269a134.39,134.39,0,0,1-1.15,16.41c-.36,2.68,2.55,5,5,5,3,0,4.64-2.31,5-5A134.39,134.39,0,0,0,529.91,269c.06-6.44-9.94-6.44-10,0Z" transform="translate(-138.6 -52.78)"/><path class="cls-3" d="M520.39,265.42l-2.08,23.43c-.57,6.41,9.44,6.37,10,0l2.08-23.43c.56-6.41-9.44-6.37-10,0Z" transform="translate(-138.6 -52.78)"/><path class="cls-3" d="M520.2,269.83c-.79,14-4.28,27.73-2.82,41.76.66,6.33,10.67,6.4,10,0-1.46-14,2-27.8,2.82-41.76.36-6.43-9.64-6.41-10,0Z" transform="translate(-138.6 -52.78)"/><path class="cls-3" d="M520.18,276q-1.06,13.36-2.65,26.68c-.76,6.37,9.24,6.32,10,0q1.59-13.32,2.65-26.68c.51-6.42-9.49-6.38-10,0Z" transform="translate(-138.6 -52.78)"/><path class="cls-3" d="M519.77,286.51a155.92,155.92,0,0,1-1.2,20.38c-.79,6.37,9.22,6.31,10,0a155.92,155.92,0,0,0,1.2-20.38c0-6.43-10-6.44-10,0Z" transform="translate(-138.6 -52.78)"/><path class="cls-3" d="M524.94,289.53c6.43,0,6.44-10,0-10s-6.45,10,0,10Z" transform="translate(-138.6 -52.78)"/><path class="cls-3" d="M519.51,300.58c0,5.19-.32,10.35-.85,15.51-.28,2.69,2.5,5,5,5,2.93,0,4.72-2.31,5-5,.53-5.16.82-10.32.85-15.51,0-6.44-10-6.44-10,0Z" transform="translate(-138.6 -52.78)"/><path class="cls-3" d="M519.47,310.77q-.35,13.39-1.15,26.77c-.39,6.43,9.62,6.41,10,0q.79-13.37,1.15-26.77c.16-6.44-9.84-6.43-10,0Z" transform="translate(-138.6 -52.78)"/><path class="cls-3" d="M519.09,333.59q-1,14.46-1.7,28.93c-.32,6.43,9.68,6.42,10,0q.71-14.47,1.7-28.93c.44-6.43-9.56-6.4-10,0Z" transform="translate(-138.6 -52.78)"/><path class="cls-3" d="M518.63,347a208,208,0,0,1-1.69,23c-.82,6.36,9.19,6.3,10,0a208,208,0,0,0,1.69-23c.11-6.44-9.89-6.44-10,0Z" transform="translate(-138.6 -52.78)"/><path class="cls-3" d="M518.44,361.09l-.74,11.18c-.17,2.69,2.43,5,5,5a5.09,5.09,0,0,0,5-5l.74-11.18c.18-2.7-2.42-5-5-5a5.09,5.09,0,0,0-5,5Z" transform="translate(-138.6 -52.78)"/><path class="cls-3" d="M518.06,373.35,517.5,384a5,5,0,0,0,10,0l.56-10.64a5,5,0,0,0-10,0Z" transform="translate(-138.6 -52.78)"/><path class="cls-3" d="M517.61,382.9c-.12,4.31-.33,8.6-.65,12.9-.2,2.69,2.44,5,5,5a5.1,5.1,0,0,0,5-5c.32-4.3.53-8.59.65-12.9.18-6.43-9.82-6.43-10,0Z" transform="translate(-138.6 -52.78)"/><path class="cls-3" d="M517.92,387.69l-1.12,19.56c-.36,6.43,9.64,6.41,10,0l1.12-19.56c.37-6.43-9.63-6.41-10,0Z" transform="translate(-138.6 -52.78)"/><path class="cls-3" d="M517.43,400.85c-.1,3.52-.26,7-.48,10.55-.17,2.69,2.42,5,5,5a5.09,5.09,0,0,0,5-5c.22-3.52.38-7,.48-10.55.18-6.44-9.82-6.43-10,0Z" transform="translate(-138.6 -52.78)"/><path class="cls-3" d="M517.3,410.59q.21,11.42-.5,22.81c-.39,6.43,9.61,6.4,10,0q.71-11.4.5-22.81c-.11-6.43-10.11-6.45-10,0Z" transform="translate(-138.6 -52.78)"/><path class="cls-4" d="M538.43,130.05c0-8.52,3.32-13,8.54-13s8.55,4.48,8.55,13-3.32,13.19-8.55,13.19S538.43,138.57,538.43,130.05Zm12.74,0c0-7.13-1.76-9.4-4.2-9.4s-4.19,2.27-4.19,9.4,1.76,9.61,4.19,9.61S551.17,137.18,551.17,130.05Z" transform="translate(-138.6 -52.78)"/><path class="cls-4" d="M558.36,139H564V122.49h-4.66v-2.87a16.1,16.1,0,0,0,5.81-2.08h3.41V139h5v3.72H558.36Z" transform="translate(-138.6 -52.78)"/><path class="cls-4" d="M575.63,130.05c0-8.52,3.33-13,8.55-13s8.55,4.48,8.55,13-3.32,13.19-8.55,13.19S575.63,138.57,575.63,130.05Zm12.75,0c0-7.13-1.76-9.4-4.2-9.4s-4.19,2.27-4.19,9.4,1.76,9.61,4.19,9.61S588.38,137.18,588.38,130.05Z" transform="translate(-138.6 -52.78)"/><path class="cls-4" d="M594.24,130.05c0-8.52,3.32-13,8.55-13s8.55,4.48,8.55,13-3.33,13.19-8.55,13.19S594.24,138.57,594.24,130.05Zm12.74,0c0-7.13-1.75-9.4-4.19-9.4s-4.2,2.27-4.2,9.4,1.76,9.61,4.2,9.61S607,137.18,607,130.05Z" transform="translate(-138.6 -52.78)"/><path class="cls-4" d="M612.84,130.05c0-8.52,3.33-13,8.55-13s8.55,4.48,8.55,13-3.32,13.19-8.55,13.19S612.84,138.57,612.84,130.05Zm12.75,0c0-7.13-1.76-9.4-4.2-9.4s-4.19,2.27-4.19,9.4,1.76,9.61,4.19,9.61S625.59,137.18,625.59,130.05Z" transform="translate(-138.6 -52.78)"/><path class="cls-4" d="M631.45,130.05c0-8.52,3.32-13,8.55-13s8.55,4.48,8.55,13-3.33,13.19-8.55,13.19S631.45,138.57,631.45,130.05Zm12.74,0c0-7.13-1.75-9.4-4.19-9.4s-4.2,2.27-4.2,9.4,1.76,9.61,4.2,9.61S644.19,137.18,644.19,130.05Z" transform="translate(-138.6 -52.78)"/><path class="cls-4" d="M651.38,139H657V122.49h-4.66v-2.87a16,16,0,0,0,5.81-2.08h3.41V139h4.95v3.72H651.38Z" transform="translate(-138.6 -52.78)"/><path class="cls-4" d="M538.45,171.61c0-8.52,3.33-13,8.55-13s8.55,4.48,8.55,13S552.22,184.8,547,184.8,538.45,180.13,538.45,171.61Zm12.75,0c0-7.13-1.76-9.4-4.2-9.4s-4.2,2.27-4.2,9.4,1.76,9.6,4.2,9.6S551.2,178.74,551.2,171.61Z" transform="translate(-138.6 -52.78)"/><path class="cls-4" d="M557.29,171.61c0-8.52,3.33-13,8.55-13s8.55,4.48,8.55,13-3.32,13.19-8.55,13.19S557.29,180.13,557.29,171.61Zm12.75,0c0-7.13-1.76-9.4-4.2-9.4s-4.19,2.27-4.19,9.4,1.75,9.6,4.19,9.6S570,178.74,570,171.61Z" transform="translate(-138.6 -52.78)"/><path class="cls-4" d="M577.46,180.6h5.64V164.05h-4.65v-2.87a16.17,16.17,0,0,0,5.81-2.08h3.4v21.5h5v3.72H577.46Z" transform="translate(-138.6 -52.78)"/><path class="cls-4" d="M596.31,180.6h5.63V164.05h-4.65v-2.87a16.1,16.1,0,0,0,5.81-2.08h3.4v21.5h5v3.72H596.31Z" transform="translate(-138.6 -52.78)"/><path class="cls-4" d="M613.82,171.61c0-8.52,3.32-13,8.55-13s8.55,4.48,8.55,13-3.33,13.19-8.55,13.19S613.82,180.13,613.82,171.61Zm12.74,0c0-7.13-1.75-9.4-4.19-9.4s-4.2,2.27-4.2,9.4,1.76,9.6,4.2,9.6S626.56,178.74,626.56,171.61Z" transform="translate(-138.6 -52.78)"/><path class="cls-4" d="M632.66,171.61c0-8.52,3.33-13,8.55-13s8.55,4.48,8.55,13-3.32,13.19-8.55,13.19S632.66,180.13,632.66,171.61Zm12.75,0c0-7.13-1.76-9.4-4.2-9.4s-4.2,2.27-4.2,9.4,1.76,9.6,4.2,9.6S645.41,178.74,645.41,171.61Z" transform="translate(-138.6 -52.78)"/><path class="cls-4" d="M652.83,180.6h5.64V164.05h-4.66v-2.87a16,16,0,0,0,5.81-2.08H663v21.5h5v3.72H652.83Z" transform="translate(-138.6 -52.78)"/><path class="cls-4" d="M670.34,171.61c0-8.52,3.33-13,8.55-13s8.55,4.48,8.55,13-3.32,13.19-8.55,13.19S670.34,180.13,670.34,171.61Zm12.75,0c0-7.13-1.76-9.4-4.2-9.4s-4.19,2.27-4.19,9.4,1.76,9.6,4.19,9.6S683.09,178.74,683.09,171.61Z" transform="translate(-138.6 -52.78)"/><path class="cls-4" d="M690.52,180.6h5.63V164.05H691.5v-2.87a16.1,16.1,0,0,0,5.81-2.08h3.4v21.5h5v3.72H690.52Z" transform="translate(-138.6 -52.78)"/><path class="cls-4" d="M708,171.61c0-8.52,3.32-13,8.55-13s8.55,4.48,8.55,13-3.33,13.19-8.55,13.19S708,180.13,708,171.61Zm12.74,0c0-7.13-1.75-9.4-4.19-9.4s-4.2,2.27-4.2,9.4,1.76,9.6,4.2,9.6S720.77,178.74,720.77,171.61Z" transform="translate(-138.6 -52.78)"/><path class="cls-4" d="M726.87,171.61c0-8.52,3.33-13,8.55-13s8.55,4.48,8.55,13-3.32,13.19-8.55,13.19S726.87,180.13,726.87,171.61Zm12.75,0c0-7.13-1.76-9.4-4.2-9.4s-4.19,2.27-4.19,9.4,1.75,9.6,4.19,9.6S739.62,178.74,739.62,171.61Z" transform="translate(-138.6 -52.78)"/><path class="cls-4" d="M541.67,221.35h5.64V204.8h-4.65v-2.87a16.36,16.36,0,0,0,5.81-2.07h3.4v21.49h5v3.73H541.67Z" transform="translate(-138.6 -52.78)"/><path class="cls-4" d="M559.11,212.36c0-8.52,3.32-13,8.55-13s8.55,4.49,8.55,13-3.33,13.19-8.55,13.19S559.11,220.88,559.11,212.36Zm12.74,0c0-7.13-1.76-9.4-4.19-9.4s-4.2,2.27-4.2,9.4,1.76,9.61,4.2,9.61S571.85,219.5,571.85,212.36Z" transform="translate(-138.6 -52.78)"/><path class="cls-4" d="M577.87,212.36c0-8.52,3.32-13,8.55-13s8.55,4.49,8.55,13-3.33,13.19-8.55,13.19S577.87,220.88,577.87,212.36Zm12.74,0c0-7.13-1.75-9.4-4.19-9.4s-4.2,2.27-4.2,9.4S584,222,586.42,222,590.61,219.5,590.61,212.36Z" transform="translate(-138.6 -52.78)"/><path class="cls-4" d="M596.63,212.36c0-8.52,3.33-13,8.55-13s8.55,4.49,8.55,13-3.32,13.19-8.55,13.19S596.63,220.88,596.63,212.36Zm12.75,0c0-7.13-1.76-9.4-4.2-9.4s-4.19,2.27-4.19,9.4,1.75,9.61,4.19,9.61S609.38,219.5,609.38,212.36Z" transform="translate(-138.6 -52.78)"/><path class="cls-4" d="M615.4,212.36c0-8.52,3.32-13,8.54-13s8.55,4.49,8.55,13-3.32,13.19-8.55,13.19S615.4,220.88,615.4,212.36Zm12.74,0c0-7.13-1.76-9.4-4.2-9.4s-4.19,2.27-4.19,9.4,1.76,9.61,4.19,9.61S628.14,219.5,628.14,212.36Z" transform="translate(-138.6 -52.78)"/><path class="cls-4" d="M634.16,212.36c0-8.52,3.32-13,8.55-13s8.55,4.49,8.55,13-3.33,13.19-8.55,13.19S634.16,220.88,634.16,212.36Zm12.74,0c0-7.13-1.75-9.4-4.19-9.4s-4.2,2.27-4.2,9.4,1.76,9.61,4.2,9.61S646.9,219.5,646.9,212.36Z" transform="translate(-138.6 -52.78)"/><path class="cls-4" d="M652.92,212.36c0-8.52,3.33-13,8.55-13s8.55,4.49,8.55,13-3.32,13.19-8.55,13.19S652.92,220.88,652.92,212.36Zm12.75,0c0-7.13-1.76-9.4-4.2-9.4s-4.19,2.27-4.19,9.4S659,222,661.47,222,665.67,219.5,665.67,212.36Z" transform="translate(-138.6 -52.78)"/><path class="cls-4" d="M673,221.35h5.64V204.8H674v-2.87a16.36,16.36,0,0,0,5.81-2.07h3.4v21.49h5v3.73H673Z" transform="translate(-138.6 -52.78)"/><path class="cls-4" d="M691.78,221.35h5.63V204.8h-4.65v-2.87a16.29,16.29,0,0,0,5.81-2.07H702v21.49h5v3.73H691.78Z" transform="translate(-138.6 -52.78)"/><path class="cls-4" d="M710.54,221.35h5.64V204.8h-4.66v-2.87a16.29,16.29,0,0,0,5.81-2.07h3.41v21.49h5v3.73H710.54Z" transform="translate(-138.6 -52.78)"/><path class="cls-4" d="M728,212.36c0-8.52,3.33-13,8.55-13s8.55,4.49,8.55,13-3.32,13.19-8.55,13.19S728,220.88,728,212.36Zm12.75,0c0-7.13-1.76-9.4-4.2-9.4s-4.19,2.27-4.19,9.4,1.75,9.61,4.19,9.61S740.72,219.5,740.72,212.36Z" transform="translate(-138.6 -52.78)"/><path class="cls-4" d="M746.74,212.36c0-8.52,3.32-13,8.55-13s8.54,4.49,8.54,13-3.32,13.19-8.54,13.19S746.74,220.88,746.74,212.36Zm12.74,0c0-7.13-1.76-9.4-4.19-9.4s-4.2,2.27-4.2,9.4,1.76,9.61,4.2,9.61S759.48,219.5,759.48,212.36Z" transform="translate(-138.6 -52.78)"/><path class="cls-4" d="M766.83,221.35h5.63V204.8h-4.65v-2.87a16.29,16.29,0,0,0,5.81-2.07H777v21.49h5v3.73H766.83Z" transform="translate(-138.6 -52.78)"/><path class="cls-4" d="M785.59,221.35h5.64V204.8h-4.66v-2.87a16.29,16.29,0,0,0,5.81-2.07h3.41v21.49h5v3.73H785.59Z" transform="translate(-138.6 -52.78)"/><path class="cls-4" d="M538.6,252.13c0-8.52,3.32-13,8.55-13s8.55,4.49,8.55,13-3.33,13.19-8.55,13.19S538.6,260.65,538.6,252.13Zm12.74,0c0-7.13-1.76-9.4-4.19-9.4s-4.2,2.27-4.2,9.4,1.76,9.61,4.2,9.61S551.34,259.27,551.34,252.13Z" transform="translate(-138.6 -52.78)"/><path class="cls-4" d="M558.81,261.12h5.64V244.57h-4.66V241.7a16.29,16.29,0,0,0,5.81-2.07H569v21.49h5v3.73H558.81Z" transform="translate(-138.6 -52.78)"/><path class="cls-4" d="M577.69,261.12h5.64V244.57h-4.66V241.7a16.29,16.29,0,0,0,5.81-2.07h3.41v21.49h5v3.73H577.69Z" transform="translate(-138.6 -52.78)"/><path class="cls-4" d="M596.57,261.12h5.64V244.57h-4.66V241.7a16.22,16.22,0,0,0,5.81-2.07h3.41v21.49h5v3.73H596.57Z" transform="translate(-138.6 -52.78)"/><path class="cls-4" d="M614.12,252.13c0-8.52,3.33-13,8.55-13s8.55,4.49,8.55,13-3.32,13.19-8.55,13.19S614.12,260.65,614.12,252.13Zm12.75,0c0-7.13-1.76-9.4-4.2-9.4s-4.19,2.27-4.19,9.4,1.76,9.61,4.19,9.61S626.87,259.27,626.87,252.13Z" transform="translate(-138.6 -52.78)"/><path class="cls-4" d="M634.34,261.12H640V244.57h-4.65V241.7a16.36,16.36,0,0,0,5.81-2.07h3.4v21.49h5v3.73H634.34Z" transform="translate(-138.6 -52.78)"/><path class="cls-4" d="M651.89,252.13c0-8.52,3.32-13,8.55-13s8.55,4.49,8.55,13-3.33,13.19-8.55,13.19S651.89,260.65,651.89,252.13Zm12.74,0c0-7.13-1.75-9.4-4.19-9.4s-4.2,2.27-4.2,9.4,1.76,9.61,4.2,9.61S664.63,259.27,664.63,252.13Z" transform="translate(-138.6 -52.78)"/><path class="cls-4" d="M672.1,261.12h5.64V244.57h-4.66V241.7a16.29,16.29,0,0,0,5.81-2.07h3.4v21.49h5v3.73H672.1Z" transform="translate(-138.6 -52.78)"/><path class="cls-4" d="M689.65,252.13c0-8.52,3.33-13,8.55-13s8.55,4.49,8.55,13-3.33,13.19-8.55,13.19S689.65,260.65,689.65,252.13Zm12.75,0c0-7.13-1.76-9.4-4.2-9.4s-4.2,2.27-4.2,9.4,1.76,9.61,4.2,9.61S702.4,259.27,702.4,252.13Z" transform="translate(-138.6 -52.78)"/><path class="cls-4" d="M709.86,261.12h5.64V244.57h-4.66V241.7a16.22,16.22,0,0,0,5.81-2.07h3.41v21.49h5v3.73H709.86Z" transform="translate(-138.6 -52.78)"/><path class="cls-4" d="M728.74,261.12h5.64V244.57h-4.65V241.7a16.36,16.36,0,0,0,5.81-2.07h3.4v21.49h5v3.73H728.74Z" transform="translate(-138.6 -52.78)"/><path class="cls-4" d="M747.63,261.12h5.63V244.57h-4.65V241.7a16.36,16.36,0,0,0,5.81-2.07h3.4v21.49h5v3.73H747.63Z" transform="translate(-138.6 -52.78)"/><path class="cls-4" d="M765.18,252.13c0-8.52,3.32-13,8.55-13s8.55,4.49,8.55,13-3.33,13.19-8.55,13.19S765.18,260.65,765.18,252.13Zm12.74,0c0-7.13-1.75-9.4-4.19-9.4s-4.2,2.27-4.2,9.4,1.76,9.61,4.2,9.61S777.92,259.27,777.92,252.13Z" transform="translate(-138.6 -52.78)"/><path class="cls-4" d="M784.06,252.13c0-8.52,3.32-13,8.55-13s8.55,4.49,8.55,13-3.33,13.19-8.55,13.19S784.06,260.65,784.06,252.13Zm12.74,0c0-7.13-1.75-9.4-4.19-9.4s-4.2,2.27-4.2,9.4,1.76,9.61,4.2,9.61S796.8,259.27,796.8,252.13Z" transform="translate(-138.6 -52.78)"/><path class="cls-4" d="M804.27,261.12h5.64V244.57h-4.66V241.7a16.29,16.29,0,0,0,5.81-2.07h3.41v21.49h4.95v3.73H804.27Z" transform="translate(-138.6 -52.78)"/><path class="cls-4" d="M538.07,293c0-8.52,3.32-13,8.55-13s8.55,4.48,8.55,13-3.33,13.19-8.55,13.19S538.07,301.5,538.07,293Zm12.74,0c0-7.13-1.75-9.4-4.19-9.4s-4.2,2.27-4.2,9.4,1.76,9.61,4.2,9.61S550.81,300.11,550.81,293Z" transform="translate(-138.6 -52.78)"/><path class="cls-4" d="M557,293c0-8.52,3.32-13,8.55-13s8.55,4.48,8.55,13-3.33,13.19-8.55,13.19S557,301.5,557,293Zm12.74,0c0-7.13-1.75-9.4-4.19-9.4s-4.2,2.27-4.2,9.4,1.76,9.61,4.2,9.61S569.69,300.11,569.69,293Z" transform="translate(-138.6 -52.78)"/><path class="cls-4" d="M577.16,302h5.64V285.42h-4.66v-2.87a16.1,16.1,0,0,0,5.81-2.08h3.41V302h4.95v3.72H577.16Z" transform="translate(-138.6 -52.78)"/><path class="cls-4" d="M596,302h5.64V285.42H597v-2.87a16,16,0,0,0,5.81-2.08h3.41V302h5v3.72H596Z" transform="translate(-138.6 -52.78)"/><path class="cls-4" d="M613.59,293c0-8.52,3.33-13,8.55-13s8.55,4.48,8.55,13-3.32,13.19-8.55,13.19S613.59,301.5,613.59,293Zm12.75,0c0-7.13-1.76-9.4-4.2-9.4S618,285.85,618,293s1.76,9.61,4.19,9.61S626.34,300.11,626.34,293Z" transform="translate(-138.6 -52.78)"/><path class="cls-4" d="M632.48,293c0-8.52,3.32-13,8.55-13s8.55,4.48,8.55,13-3.33,13.19-8.55,13.19S632.48,301.5,632.48,293Zm12.74,0c0-7.13-1.76-9.4-4.19-9.4s-4.2,2.27-4.2,9.4,1.76,9.61,4.2,9.61S645.22,300.11,645.22,293Z" transform="translate(-138.6 -52.78)"/><path class="cls-4" d="M652.69,302h5.63V285.42h-4.65v-2.87a16.1,16.1,0,0,0,5.81-2.08h3.4V302h5v3.72H652.69Z" transform="translate(-138.6 -52.78)"/><path class="cls-4" d="M670.24,293c0-8.52,3.32-13,8.55-13s8.55,4.48,8.55,13-3.33,13.19-8.55,13.19S670.24,301.5,670.24,293ZM683,293c0-7.13-1.75-9.4-4.19-9.4s-4.2,2.27-4.2,9.4,1.76,9.61,4.2,9.61S683,300.11,683,293Z" transform="translate(-138.6 -52.78)"/><path class="cls-4" d="M690.45,302h5.64V285.42h-4.66v-2.87a16.1,16.1,0,0,0,5.81-2.08h3.41V302h5v3.72H690.45Z" transform="translate(-138.6 -52.78)"/><path class="cls-4" d="M708,293c0-8.52,3.33-13,8.55-13s8.55,4.48,8.55,13-3.32,13.19-8.55,13.19S708,301.5,708,293Zm12.75,0c0-7.13-1.76-9.4-4.2-9.4s-4.19,2.27-4.19,9.4,1.75,9.61,4.19,9.61S720.75,300.11,720.75,293Z" transform="translate(-138.6 -52.78)"/><path class="cls-4" d="M726.88,293c0-8.52,3.33-13,8.55-13s8.55,4.48,8.55,13-3.32,13.19-8.55,13.19S726.88,301.5,726.88,293Zm12.75,0c0-7.13-1.76-9.4-4.2-9.4s-4.19,2.27-4.19,9.4,1.76,9.61,4.19,9.61S739.63,300.11,739.63,293Z" transform="translate(-138.6 -52.78)"/><path class="cls-4" d="M747.1,302h5.63V285.42h-4.65v-2.87a16.17,16.17,0,0,0,5.81-2.08h3.4V302h5v3.72H747.1Z" transform="translate(-138.6 -52.78)"/><path class="cls-4" d="M764.65,293c0-8.52,3.32-13,8.55-13s8.55,4.48,8.55,13-3.33,13.19-8.55,13.19S764.65,301.5,764.65,293Zm12.74,0c0-7.13-1.75-9.4-4.19-9.4s-4.2,2.27-4.2,9.4,1.76,9.61,4.2,9.61S777.39,300.11,777.39,293Z" transform="translate(-138.6 -52.78)"/><path class="cls-4" d="M783.53,293c0-8.52,3.32-13,8.55-13s8.55,4.48,8.55,13-3.33,13.19-8.55,13.19S783.53,301.5,783.53,293Zm12.74,0c0-7.13-1.75-9.4-4.19-9.4s-4.2,2.27-4.2,9.4,1.76,9.61,4.2,9.61S796.27,300.11,796.27,293Z" transform="translate(-138.6 -52.78)"/><path class="cls-4" d="M802.41,293c0-8.52,3.33-13,8.55-13s8.55,4.48,8.55,13-3.32,13.19-8.55,13.19S802.41,301.5,802.41,293Zm12.75,0c0-7.13-1.76-9.4-4.2-9.4s-4.2,2.27-4.2,9.4,1.76,9.61,4.2,9.61S815.16,300.11,815.16,293Z" transform="translate(-138.6 -52.78)"/><path class="cls-4" d="M537.52,333.29c0-8.52,3.32-13,8.55-13s8.55,4.49,8.55,13-3.33,13.18-8.55,13.18S537.52,341.81,537.52,333.29Zm12.74,0c0-7.14-1.76-9.4-4.19-9.4s-4.2,2.26-4.2,9.4,1.76,9.6,4.2,9.6S550.26,340.42,550.26,333.29Z" transform="translate(-138.6 -52.78)"/><path class="cls-4" d="M556.52,333.29c0-8.52,3.32-13,8.55-13s8.55,4.49,8.55,13-3.33,13.18-8.55,13.18S556.52,341.81,556.52,333.29Zm12.74,0c0-7.14-1.76-9.4-4.19-9.4s-4.2,2.26-4.2,9.4,1.76,9.6,4.2,9.6S569.26,340.42,569.26,333.29Z" transform="translate(-138.6 -52.78)"/><path class="cls-4" d="M575.52,333.29c0-8.52,3.32-13,8.55-13s8.55,4.49,8.55,13-3.33,13.18-8.55,13.18S575.52,341.81,575.52,333.29Zm12.74,0c0-7.14-1.76-9.4-4.19-9.4s-4.2,2.26-4.2,9.4,1.76,9.6,4.2,9.6S588.26,340.42,588.26,333.29Z" transform="translate(-138.6 -52.78)"/><path class="cls-4" d="M595.85,342.27h5.63V325.72h-4.65v-2.86a16.1,16.1,0,0,0,5.81-2.08H606v21.49h5V346H595.85Z" transform="translate(-138.6 -52.78)"/><path class="cls-4" d="M614.85,342.27h5.63V325.72h-4.65v-2.86a16.1,16.1,0,0,0,5.81-2.08H625v21.49h5V346H614.85Z" transform="translate(-138.6 -52.78)"/><path class="cls-4" d="M633.85,342.27h5.63V325.72h-4.65v-2.86a16.1,16.1,0,0,0,5.81-2.08H644v21.49h5V346H633.85Z" transform="translate(-138.6 -52.78)"/><path class="cls-4" d="M651.52,333.29c0-8.52,3.32-13,8.55-13s8.55,4.49,8.55,13-3.33,13.18-8.55,13.18S651.52,341.81,651.52,333.29Zm12.74,0c0-7.14-1.75-9.4-4.19-9.4s-4.2,2.26-4.2,9.4,1.76,9.6,4.2,9.6S664.26,340.42,664.26,333.29Z" transform="translate(-138.6 -52.78)"/><path class="cls-4" d="M671.85,342.27h5.64V325.72h-4.66v-2.86a16.1,16.1,0,0,0,5.81-2.08H682v21.49h5V346H671.85Z" transform="translate(-138.6 -52.78)"/><path class="cls-4" d="M689.52,333.29c0-8.52,3.32-13,8.55-13s8.55,4.49,8.55,13-3.33,13.18-8.55,13.18S689.52,341.81,689.52,333.29Zm12.74,0c0-7.14-1.75-9.4-4.19-9.4s-4.2,2.26-4.2,9.4,1.76,9.6,4.2,9.6S702.26,340.42,702.26,333.29Z" transform="translate(-138.6 -52.78)"/><path class="cls-4" d="M708.52,333.29c0-8.52,3.32-13,8.55-13s8.55,4.49,8.55,13-3.33,13.18-8.55,13.18S708.52,341.81,708.52,333.29Zm12.75,0c0-7.14-1.76-9.4-4.2-9.4s-4.2,2.26-4.2,9.4,1.76,9.6,4.2,9.6S721.27,340.42,721.27,333.29Z" transform="translate(-138.6 -52.78)"/><path class="cls-4" d="M727.52,333.29c0-8.52,3.32-13,8.55-13s8.55,4.49,8.55,13-3.33,13.18-8.55,13.18S727.52,341.81,727.52,333.29Zm12.75,0c0-7.14-1.76-9.4-4.2-9.4s-4.2,2.26-4.2,9.4,1.76,9.6,4.2,9.6S740.27,340.42,740.27,333.29Z" transform="translate(-138.6 -52.78)"/><path class="cls-4" d="M747.85,342.27h5.64V325.72h-4.66v-2.86a16.1,16.1,0,0,0,5.81-2.08h3.41v21.49h5V346H747.85Z" transform="translate(-138.6 -52.78)"/><path class="cls-4" d="M766.85,342.27h5.64V325.72h-4.66v-2.86a16.1,16.1,0,0,0,5.81-2.08h3.41v21.49h5V346H766.85Z" transform="translate(-138.6 -52.78)"/><path class="cls-4" d="M784.52,333.29c0-8.52,3.33-13,8.55-13s8.55,4.49,8.55,13-3.32,13.18-8.55,13.18S784.52,341.81,784.52,333.29Zm12.75,0c0-7.14-1.76-9.4-4.2-9.4s-4.19,2.26-4.19,9.4,1.75,9.6,4.19,9.6S797.27,340.42,797.27,333.29Z" transform="translate(-138.6 -52.78)"/><path class="cls-4" d="M804.85,342.27h5.64V325.72h-4.66v-2.86a16,16,0,0,0,5.81-2.08h3.41v21.49h5V346H804.85Z" transform="translate(-138.6 -52.78)"/><path class="cls-4" d="M537.52,373.32c0-8.52,3.32-13,8.55-13s8.55,4.48,8.55,13-3.33,13.19-8.55,13.19S537.52,381.84,537.52,373.32Zm12.74,0c0-7.13-1.76-9.4-4.19-9.4s-4.2,2.27-4.2,9.4,1.76,9.61,4.2,9.61S550.26,380.45,550.26,373.32Z" transform="translate(-138.6 -52.78)"/><path class="cls-4" d="M557.77,382.31h5.63V365.76h-4.65v-2.87a16.1,16.1,0,0,0,5.81-2.08H568v21.5h5V386H557.77Z" transform="translate(-138.6 -52.78)"/><path class="cls-4" d="M575.36,373.32c0-8.52,3.32-13,8.55-13s8.55,4.48,8.55,13-3.33,13.19-8.55,13.19S575.36,381.84,575.36,373.32Zm12.74,0c0-7.13-1.75-9.4-4.19-9.4s-4.2,2.27-4.2,9.4,1.76,9.61,4.2,9.61S588.1,380.45,588.1,373.32Z" transform="translate(-138.6 -52.78)"/><path class="cls-4" d="M594.28,373.32c0-8.52,3.32-13,8.55-13s8.55,4.48,8.55,13-3.33,13.19-8.55,13.19S594.28,381.84,594.28,373.32Zm12.75,0c0-7.13-1.76-9.4-4.2-9.4s-4.2,2.27-4.2,9.4,1.76,9.61,4.2,9.61S607,380.45,607,373.32Z" transform="translate(-138.6 -52.78)"/><path class="cls-4" d="M613.2,373.32c0-8.52,3.33-13,8.55-13s8.55,4.48,8.55,13-3.32,13.19-8.55,13.19S613.2,381.84,613.2,373.32Zm12.75,0c0-7.13-1.76-9.4-4.2-9.4s-4.19,2.27-4.19,9.4,1.75,9.61,4.19,9.61S626,380.45,626,373.32Z" transform="translate(-138.6 -52.78)"/><path class="cls-4" d="M633.45,382.31h5.64V365.76h-4.66v-2.87a16.16,16.16,0,0,0,5.82-2.08h3.4v21.5h5V386H633.45Z" transform="translate(-138.6 -52.78)"/><path class="cls-4" d="M652.37,382.31H658V365.76h-4.65v-2.87a16.17,16.17,0,0,0,5.81-2.08h3.4v21.5h5V386H652.37Z" transform="translate(-138.6 -52.78)"/><path class="cls-4" d="M671.29,382.31h5.64V365.76h-4.65v-2.87a16.17,16.17,0,0,0,5.81-2.08h3.4v21.5h5V386H671.29Z" transform="translate(-138.6 -52.78)"/><path class="cls-4" d="M688.89,373.32c0-8.52,3.32-13,8.55-13s8.55,4.48,8.55,13-3.33,13.19-8.55,13.19S688.89,381.84,688.89,373.32Zm12.74,0c0-7.13-1.76-9.4-4.19-9.4s-4.2,2.27-4.2,9.4,1.76,9.61,4.2,9.61S701.63,380.45,701.63,373.32Z" transform="translate(-138.6 -52.78)"/><path class="cls-4" d="M707.81,373.32c0-8.52,3.32-13,8.55-13s8.55,4.48,8.55,13-3.33,13.19-8.55,13.19S707.81,381.84,707.81,373.32Zm12.74,0c0-7.13-1.76-9.4-4.19-9.4s-4.2,2.27-4.2,9.4,1.76,9.61,4.2,9.61S720.55,380.45,720.55,373.32Z" transform="translate(-138.6 -52.78)"/><path class="cls-4" d="M728.06,382.31h5.64V365.76H729v-2.87a16.1,16.1,0,0,0,5.81-2.08h3.4v21.5h5V386H728.06Z" transform="translate(-138.6 -52.78)"/><path class="cls-4" d="M745.65,373.32c0-8.52,3.32-13,8.55-13s8.55,4.48,8.55,13-3.33,13.19-8.55,13.19S745.65,381.84,745.65,373.32Zm12.75,0c0-7.13-1.76-9.4-4.2-9.4s-4.2,2.27-4.2,9.4,1.76,9.61,4.2,9.61S758.4,380.45,758.4,373.32Z" transform="translate(-138.6 -52.78)"/><path class="cls-4" d="M764.57,373.32c0-8.52,3.33-13,8.55-13s8.55,4.48,8.55,13-3.32,13.19-8.55,13.19S764.57,381.84,764.57,373.32Zm12.75,0c0-7.13-1.76-9.4-4.2-9.4s-4.2,2.27-4.2,9.4,1.76,9.61,4.2,9.61S777.32,380.45,777.32,373.32Z" transform="translate(-138.6 -52.78)"/><path class="cls-4" d="M784.82,382.31h5.64V365.76H785.8v-2.87a16,16,0,0,0,5.81-2.08H795v21.5h5V386H784.82Z" transform="translate(-138.6 -52.78)"/><path class="cls-4" d="M803.74,382.31h5.64V365.76h-4.65v-2.87a16.17,16.17,0,0,0,5.81-2.08h3.4v21.5h5V386H803.74Z" transform="translate(-138.6 -52.78)"/><path class="cls-4" d="M537.52,413.35c0-8.52,3.32-13,8.55-13s8.55,4.49,8.55,13-3.33,13.19-8.55,13.19S537.52,421.87,537.52,413.35Zm12.74,0c0-7.13-1.76-9.39-4.19-9.39s-4.2,2.26-4.2,9.39,1.76,9.61,4.2,9.61S550.26,420.49,550.26,413.35Z" transform="translate(-138.6 -52.78)"/><path class="cls-4" d="M557.73,422.34h5.64V405.79h-4.66v-2.87a16.29,16.29,0,0,0,5.81-2.07h3.4v21.49h5v3.73H557.73Z" transform="translate(-138.6 -52.78)"/><path class="cls-4" d="M575.28,413.35c0-8.52,3.32-13,8.55-13s8.55,4.49,8.55,13-3.33,13.19-8.55,13.19S575.28,421.87,575.28,413.35Zm12.75,0c0-7.13-1.76-9.39-4.2-9.39s-4.2,2.26-4.2,9.39,1.76,9.61,4.2,9.61S588,420.49,588,413.35Z" transform="translate(-138.6 -52.78)"/><path class="cls-4" d="M594.16,413.35c0-8.52,3.33-13,8.55-13s8.55,4.49,8.55,13-3.32,13.19-8.55,13.19S594.16,421.87,594.16,413.35Zm12.75,0c0-7.13-1.76-9.39-4.2-9.39s-4.19,2.26-4.19,9.39,1.75,9.61,4.19,9.61S606.91,420.49,606.91,413.35Z" transform="translate(-138.6 -52.78)"/><path class="cls-4" d="M614.37,422.34H620V405.79h-4.65v-2.87a16.36,16.36,0,0,0,5.81-2.07h3.4v21.49h5v3.73H614.37Z" transform="translate(-138.6 -52.78)"/><path class="cls-4" d="M631.92,413.35c0-8.52,3.33-13,8.55-13s8.55,4.49,8.55,13-3.32,13.19-8.55,13.19S631.92,421.87,631.92,413.35Zm12.75,0c0-7.13-1.76-9.39-4.2-9.39s-4.19,2.26-4.19,9.39S638,423,640.47,423,644.67,420.49,644.67,413.35Z" transform="translate(-138.6 -52.78)"/><path class="cls-4" d="M652.14,422.34h5.63V405.79h-4.65v-2.87a16.29,16.29,0,0,0,5.81-2.07h3.4v21.49h5v3.73H652.14Z" transform="translate(-138.6 -52.78)"/><path class="cls-4" d="M671,422.34h5.63V405.79H672v-2.87a16.29,16.29,0,0,0,5.81-2.07h3.4v21.49h5v3.73H671Z" transform="translate(-138.6 -52.78)"/><path class="cls-4" d="M688.57,413.35c0-8.52,3.32-13,8.55-13s8.55,4.49,8.55,13-3.33,13.19-8.55,13.19S688.57,421.87,688.57,413.35Zm12.75,0c0-7.13-1.76-9.39-4.2-9.39s-4.2,2.26-4.2,9.39,1.76,9.61,4.2,9.61S701.32,420.49,701.32,413.35Z" transform="translate(-138.6 -52.78)"/><path class="cls-4" d="M708.78,422.34h5.64V405.79h-4.66v-2.87a16.29,16.29,0,0,0,5.81-2.07H719v21.49h4.95v3.73H708.78Z" transform="translate(-138.6 -52.78)"/><path class="cls-4" d="M727.66,422.34h5.64V405.79h-4.66v-2.87a16.35,16.35,0,0,0,5.82-2.07h3.4v21.49h4.95v3.73H727.66Z" transform="translate(-138.6 -52.78)"/><path class="cls-4" d="M746.54,422.34h5.64V405.79h-4.65v-2.87a16.36,16.36,0,0,0,5.81-2.07h3.4v21.49h5v3.73H746.54Z" transform="translate(-138.6 -52.78)"/><path class="cls-4" d="M764.1,413.35c0-8.52,3.32-13,8.55-13s8.55,4.49,8.55,13-3.33,13.19-8.55,13.19S764.1,421.87,764.1,413.35Zm12.74,0c0-7.13-1.76-9.39-4.19-9.39s-4.2,2.26-4.2,9.39,1.76,9.61,4.2,9.61S776.84,420.49,776.84,413.35Z" transform="translate(-138.6 -52.78)"/><path class="cls-4" d="M783,413.35c0-8.52,3.32-13,8.55-13s8.55,4.49,8.55,13-3.33,13.19-8.55,13.19S783,421.87,783,413.35Zm12.74,0c0-7.13-1.75-9.39-4.19-9.39s-4.2,2.26-4.2,9.39,1.76,9.61,4.2,9.61S795.72,420.49,795.72,413.35Z" transform="translate(-138.6 -52.78)"/><path class="cls-4" d="M538.85,463.46h5.63V446.91h-4.65V444a16.36,16.36,0,0,0,5.81-2.07H549v21.49h5v3.72H538.85Z" transform="translate(-138.6 -52.78)"/><path class="cls-4" d="M557.89,463.46h5.63V446.91h-4.65V444a16.36,16.36,0,0,0,5.81-2.07h3.4v21.49h5v3.72H557.89Z" transform="translate(-138.6 -52.78)"/><path class="cls-4" d="M575.6,454.47c0-8.52,3.32-13,8.55-13s8.55,4.49,8.55,13-3.33,13.19-8.55,13.19S575.6,463,575.6,454.47Zm12.74,0c0-7.13-1.76-9.4-4.19-9.4s-4.2,2.27-4.2,9.4,1.76,9.61,4.2,9.61S588.34,461.6,588.34,454.47Z" transform="translate(-138.6 -52.78)"/><path class="cls-4" d="M596,463.46h5.63V446.91H597V444a16.36,16.36,0,0,0,5.81-2.07h3.4v21.49h5v3.72H596Z" transform="translate(-138.6 -52.78)"/><path class="cls-4" d="M613.68,454.47c0-8.52,3.32-13,8.55-13s8.55,4.49,8.55,13-3.33,13.19-8.55,13.19S613.68,463,613.68,454.47Zm12.74,0c0-7.13-1.76-9.4-4.19-9.4s-4.2,2.27-4.2,9.4,1.76,9.61,4.2,9.61S626.42,461.6,626.42,454.47Z" transform="translate(-138.6 -52.78)"/><path class="cls-4" d="M634.05,463.46h5.63V446.91H635V444a16.36,16.36,0,0,0,5.81-2.07h3.4v21.49h5v3.72H634.05Z" transform="translate(-138.6 -52.78)"/><path class="cls-4" d="M653.09,463.46h5.63V446.91h-4.65V444a16.36,16.36,0,0,0,5.81-2.07h3.4v21.49h5v3.72H653.09Z" transform="translate(-138.6 -52.78)"/><path class="cls-4" d="M670.8,454.47c0-8.52,3.32-13,8.55-13s8.55,4.49,8.55,13-3.33,13.19-8.55,13.19S670.8,463,670.8,454.47Zm12.74,0c0-7.13-1.76-9.4-4.19-9.4s-4.2,2.27-4.2,9.4,1.76,9.61,4.2,9.61S683.54,461.6,683.54,454.47Z" transform="translate(-138.6 -52.78)"/><path class="cls-4" d="M689.84,454.47c0-8.52,3.32-13,8.55-13s8.55,4.49,8.55,13-3.33,13.19-8.55,13.19S689.84,463,689.84,454.47Zm12.74,0c0-7.13-1.76-9.4-4.19-9.4s-4.2,2.27-4.2,9.4,1.76,9.61,4.2,9.61S702.58,461.6,702.58,454.47Z" transform="translate(-138.6 -52.78)"/><path class="cls-4" d="M710.21,463.46h5.63V446.91h-4.65V444A16.29,16.29,0,0,0,717,442h3.4v21.49h5v3.72H710.21Z" transform="translate(-138.6 -52.78)"/><path class="cls-4" d="M727.92,454.47c0-8.52,3.32-13,8.55-13s8.55,4.49,8.55,13-3.33,13.19-8.55,13.19S727.92,463,727.92,454.47Zm12.74,0c0-7.13-1.76-9.4-4.19-9.4s-4.2,2.27-4.2,9.4,1.76,9.61,4.2,9.61S740.66,461.6,740.66,454.47Z" transform="translate(-138.6 -52.78)"/><path class="cls-4" d="M747,454.47c0-8.52,3.32-13,8.55-13s8.55,4.49,8.55,13-3.33,13.19-8.55,13.19S747,463,747,454.47Zm12.74,0c0-7.13-1.76-9.4-4.19-9.4s-4.2,2.27-4.2,9.4,1.76,9.61,4.2,9.61S759.7,461.6,759.7,454.47Z" transform="translate(-138.6 -52.78)"/><path class="cls-4" d="M766,454.47c0-8.52,3.32-13,8.55-13s8.55,4.49,8.55,13-3.33,13.19-8.55,13.19S766,463,766,454.47Zm12.74,0c0-7.13-1.76-9.4-4.19-9.4s-4.2,2.27-4.2,9.4,1.76,9.61,4.2,9.61S778.74,461.6,778.74,454.47Z" transform="translate(-138.6 -52.78)"/><path class="cls-4" d="M785,454.47c0-8.52,3.32-13,8.55-13s8.55,4.49,8.55,13-3.33,13.19-8.55,13.19S785,463,785,454.47Zm12.74,0c0-7.13-1.76-9.4-4.19-9.4s-4.2,2.27-4.2,9.4,1.76,9.61,4.2,9.61S797.78,461.6,797.78,454.47Z" transform="translate(-138.6 -52.78)"/><path class="cls-4" d="M537.46,494.24c0-8.52,3.32-13,8.55-13s8.55,4.49,8.55,13-3.33,13.18-8.55,13.18S537.46,502.75,537.46,494.24Zm12.74,0c0-7.14-1.76-9.4-4.19-9.4s-4.2,2.26-4.2,9.4,1.76,9.6,4.2,9.6S550.2,501.37,550.2,494.24Z" transform="translate(-138.6 -52.78)"/><path class="cls-4" d="M556.38,494.24c0-8.52,3.32-13,8.55-13s8.55,4.49,8.55,13-3.33,13.18-8.55,13.18S556.38,502.75,556.38,494.24Zm12.74,0c0-7.14-1.75-9.4-4.19-9.4s-4.2,2.26-4.2,9.4,1.76,9.6,4.2,9.6S569.12,501.37,569.12,494.24Z" transform="translate(-138.6 -52.78)"/><path class="cls-4" d="M576.63,503.22h5.63V486.67h-4.65v-2.86a16.1,16.1,0,0,0,5.81-2.08h3.4v21.49h5V507H576.63Z" transform="translate(-138.6 -52.78)"/><path class="cls-4" d="M595.55,503.22h5.64V486.67h-4.66v-2.86a16.1,16.1,0,0,0,5.81-2.08h3.41v21.49h5V507H595.55Z" transform="translate(-138.6 -52.78)"/><path class="cls-4" d="M614.47,503.22h5.64V486.67h-4.66v-2.86a16.1,16.1,0,0,0,5.81-2.08h3.41v21.49h5V507H614.47Z" transform="translate(-138.6 -52.78)"/><path class="cls-4" d="M633.39,503.22H639V486.67h-4.66v-2.86a16,16,0,0,0,5.81-2.08h3.41v21.49h4.95V507H633.39Z" transform="translate(-138.6 -52.78)"/><path class="cls-4" d="M651,494.24c0-8.52,3.33-13,8.55-13s8.55,4.49,8.55,13-3.32,13.18-8.55,13.18S651,502.75,651,494.24Zm12.75,0c0-7.14-1.76-9.4-4.2-9.4s-4.19,2.26-4.19,9.4,1.75,9.6,4.19,9.6S663.73,501.37,663.73,494.24Z" transform="translate(-138.6 -52.78)"/><path class="cls-4" d="M669.91,494.24c0-8.52,3.32-13,8.54-13s8.55,4.49,8.55,13-3.32,13.18-8.55,13.18S669.91,502.75,669.91,494.24Zm12.74,0c0-7.14-1.76-9.4-4.2-9.4s-4.19,2.26-4.19,9.4,1.76,9.6,4.19,9.6S682.65,501.37,682.65,494.24Z" transform="translate(-138.6 -52.78)"/><path class="cls-4" d="M690.16,503.22h5.63V486.67h-4.65v-2.86a16.1,16.1,0,0,0,5.81-2.08h3.4v21.49h5V507H690.16Z" transform="translate(-138.6 -52.78)"/><path class="cls-4" d="M707.75,494.24c0-8.52,3.32-13,8.55-13s8.55,4.49,8.55,13-3.33,13.18-8.55,13.18S707.75,502.75,707.75,494.24Zm12.74,0c0-7.14-1.75-9.4-4.19-9.4s-4.2,2.26-4.2,9.4,1.76,9.6,4.2,9.6S720.49,501.37,720.49,494.24Z" transform="translate(-138.6 -52.78)"/><path class="cls-4" d="M728,503.22h5.63V486.67H729v-2.86a16.1,16.1,0,0,0,5.81-2.08h3.4v21.49h5V507H728Z" transform="translate(-138.6 -52.78)"/><path class="cls-4" d="M746.92,503.22h5.64V486.67H747.9v-2.86a16.1,16.1,0,0,0,5.81-2.08h3.41v21.49h5V507H746.92Z" transform="translate(-138.6 -52.78)"/><path class="cls-4" d="M764.51,494.24c0-8.52,3.33-13,8.55-13s8.55,4.49,8.55,13-3.32,13.18-8.55,13.18S764.51,502.75,764.51,494.24Zm12.75,0c0-7.14-1.76-9.4-4.2-9.4s-4.19,2.26-4.19,9.4,1.75,9.6,4.19,9.6S777.26,501.37,777.26,494.24Z" transform="translate(-138.6 -52.78)"/><path class="cls-4" d="M784.76,503.22h5.64V486.67h-4.66v-2.86a16,16,0,0,0,5.81-2.08H795v21.49h4.95V507H784.76Z" transform="translate(-138.6 -52.78)"/><path class="cls-4" d="M539.93,543.69h5.63V527.14h-4.65v-2.87a16.1,16.1,0,0,0,5.81-2.08h3.4v21.5h5v3.72H539.93Z" transform="translate(-138.6 -52.78)"/><path class="cls-4" d="M558.81,543.69h5.64V527.14h-4.66v-2.87a16.1,16.1,0,0,0,5.81-2.08H569v21.5h5v3.72H558.81Z" transform="translate(-138.6 -52.78)"/><path class="cls-4" d="M577.69,543.69h5.64V527.14h-4.66v-2.87a16.1,16.1,0,0,0,5.81-2.08h3.41v21.5h5v3.72H577.69Z" transform="translate(-138.6 -52.78)"/><path class="cls-4" d="M595.24,534.7c0-8.52,3.33-13,8.55-13s8.55,4.49,8.55,13-3.32,13.19-8.55,13.19S595.24,543.22,595.24,534.7Zm12.75,0c0-7.13-1.76-9.4-4.2-9.4s-4.19,2.27-4.19,9.4,1.75,9.61,4.19,9.61S608,541.83,608,534.7Z" transform="translate(-138.6 -52.78)"/><path class="cls-4" d="M615.46,543.69h5.63V527.14h-4.65v-2.87a16.17,16.17,0,0,0,5.81-2.08h3.4v21.5h5v3.72H615.46Z" transform="translate(-138.6 -52.78)"/><path class="cls-4" d="M634.34,543.69H640V527.14h-4.65v-2.87a16.17,16.17,0,0,0,5.81-2.08h3.4v21.5h5v3.72H634.34Z" transform="translate(-138.6 -52.78)"/><path class="cls-4" d="M653.22,543.69h5.63V527.14H654.2v-2.87a16.1,16.1,0,0,0,5.81-2.08h3.4v21.5h5v3.72H653.22Z" transform="translate(-138.6 -52.78)"/><path class="cls-4" d="M670.77,534.7c0-8.52,3.32-13,8.55-13s8.55,4.49,8.55,13-3.33,13.19-8.55,13.19S670.77,543.22,670.77,534.7Zm12.74,0c0-7.13-1.75-9.4-4.19-9.4s-4.2,2.27-4.2,9.4,1.76,9.61,4.2,9.61S683.51,541.83,683.51,534.7Z" transform="translate(-138.6 -52.78)"/><path class="cls-4" d="M691,543.69h5.64V527.14H692v-2.87a16.1,16.1,0,0,0,5.81-2.08h3.41v21.5h5v3.72H691Z" transform="translate(-138.6 -52.78)"/><path class="cls-4" d="M708.53,534.7c0-8.52,3.33-13,8.55-13s8.55,4.49,8.55,13-3.32,13.19-8.55,13.19S708.53,543.22,708.53,534.7Zm12.75,0c0-7.13-1.76-9.4-4.2-9.4s-4.19,2.27-4.19,9.4,1.75,9.61,4.19,9.61S721.28,541.83,721.28,534.7Z" transform="translate(-138.6 -52.78)"/><path class="cls-4" d="M728.74,543.69h5.64V527.14h-4.65v-2.87a16.17,16.17,0,0,0,5.81-2.08h3.4v21.5h5v3.72H728.74Z" transform="translate(-138.6 -52.78)"/><path class="cls-4" d="M746.3,534.7c0-8.52,3.32-13,8.55-13s8.55,4.49,8.55,13-3.33,13.19-8.55,13.19S746.3,543.22,746.3,534.7Zm12.74,0c0-7.13-1.76-9.4-4.19-9.4s-4.2,2.27-4.2,9.4,1.76,9.61,4.2,9.61S759,541.83,759,534.7Z" transform="translate(-138.6 -52.78)"/><path class="cls-4" d="M766.51,543.69h5.63V527.14h-4.65v-2.87a16.1,16.1,0,0,0,5.81-2.08h3.4v21.5h5v3.72H766.51Z" transform="translate(-138.6 -52.78)"/><path class="cls-4" d="M785.39,543.69H791V527.14h-4.66v-2.87a16.1,16.1,0,0,0,5.81-2.08h3.4v21.5h5v3.72H785.39Z" transform="translate(-138.6 -52.78)"/><path class="cls-4" d="M538.69,583.72h5.63V567.17h-4.65v-2.86a16.1,16.1,0,0,0,5.81-2.08h3.4v21.49h5v3.73H538.69Z" transform="translate(-138.6 -52.78)"/><path class="cls-4" d="M556.28,574.74c0-8.52,3.32-13,8.55-13s8.55,4.49,8.55,13-3.33,13.18-8.55,13.18S556.28,583.26,556.28,574.74Zm12.74,0c0-7.14-1.75-9.4-4.19-9.4s-4.2,2.26-4.2,9.4,1.76,9.6,4.2,9.6S569,581.87,569,574.74Z" transform="translate(-138.6 -52.78)"/><path class="cls-4" d="M575.2,574.74c0-8.52,3.32-13,8.55-13s8.55,4.49,8.55,13-3.33,13.18-8.55,13.18S575.2,583.26,575.2,574.74Zm12.74,0c0-7.14-1.75-9.4-4.19-9.4s-4.2,2.26-4.2,9.4,1.76,9.6,4.2,9.6S587.94,581.87,587.94,574.74Z" transform="translate(-138.6 -52.78)"/><path class="cls-4" d="M595.45,583.72h5.64V567.17h-4.66v-2.86a16.1,16.1,0,0,0,5.81-2.08h3.41v21.49h5v3.73H595.45Z" transform="translate(-138.6 -52.78)"/><path class="cls-4" d="M613,574.74c0-8.52,3.33-13,8.55-13s8.55,4.49,8.55,13-3.32,13.18-8.55,13.18S613,583.26,613,574.74Zm12.75,0c0-7.14-1.76-9.4-4.2-9.4s-4.19,2.26-4.19,9.4,1.75,9.6,4.19,9.6S625.79,581.87,625.79,574.74Z" transform="translate(-138.6 -52.78)"/><path class="cls-4" d="M632,574.74c0-8.52,3.33-13,8.55-13s8.55,4.49,8.55,13-3.32,13.18-8.55,13.18S632,583.26,632,574.74Zm12.75,0c0-7.14-1.76-9.4-4.2-9.4s-4.19,2.26-4.19,9.4,1.76,9.6,4.19,9.6S644.71,581.87,644.71,574.74Z" transform="translate(-138.6 -52.78)"/><path class="cls-4" d="M650.88,574.74c0-8.52,3.33-13,8.55-13s8.55,4.49,8.55,13-3.32,13.18-8.55,13.18S650.88,583.26,650.88,574.74Zm12.75,0c0-7.14-1.76-9.4-4.2-9.4s-4.19,2.26-4.19,9.4,1.76,9.6,4.19,9.6S663.63,581.87,663.63,574.74Z" transform="translate(-138.6 -52.78)"/><path class="cls-4" d="M671.14,583.72h5.63V567.17h-4.65v-2.86a16.17,16.17,0,0,0,5.81-2.08h3.4v21.49h5v3.73H671.14Z" transform="translate(-138.6 -52.78)"/><path class="cls-4" d="M688.73,574.74c0-8.52,3.32-13,8.55-13s8.55,4.49,8.55,13-3.33,13.18-8.55,13.18S688.73,583.26,688.73,574.74Zm12.74,0c0-7.14-1.76-9.4-4.19-9.4s-4.2,2.26-4.2,9.4,1.76,9.6,4.2,9.6S701.47,581.87,701.47,574.74Z" transform="translate(-138.6 -52.78)"/><path class="cls-4" d="M707.65,574.74c0-8.52,3.32-13,8.55-13s8.55,4.49,8.55,13-3.33,13.18-8.55,13.18S707.65,583.26,707.65,574.74Zm12.74,0c0-7.14-1.75-9.4-4.19-9.4s-4.2,2.26-4.2,9.4,1.76,9.6,4.2,9.6S720.39,581.87,720.39,574.74Z" transform="translate(-138.6 -52.78)"/><path class="cls-4" d="M726.57,574.74c0-8.52,3.32-13,8.55-13s8.55,4.49,8.55,13-3.33,13.18-8.55,13.18S726.57,583.26,726.57,574.74Zm12.74,0c0-7.14-1.75-9.4-4.19-9.4s-4.2,2.26-4.2,9.4,1.76,9.6,4.2,9.6S739.31,581.87,739.31,574.74Z" transform="translate(-138.6 -52.78)"/><path class="cls-4" d="M745.49,574.74c0-8.52,3.33-13,8.55-13s8.55,4.49,8.55,13-3.32,13.18-8.55,13.18S745.49,583.26,745.49,574.74Zm12.75,0c0-7.14-1.76-9.4-4.2-9.4s-4.2,2.26-4.2,9.4,1.76,9.6,4.2,9.6S758.24,581.87,758.24,574.74Z" transform="translate(-138.6 -52.78)"/><path class="cls-4" d="M764.41,574.74c0-8.52,3.33-13,8.55-13s8.55,4.49,8.55,13-3.32,13.18-8.55,13.18S764.41,583.26,764.41,574.74Zm12.75,0c0-7.14-1.76-9.4-4.2-9.4s-4.19,2.26-4.19,9.4,1.75,9.6,4.19,9.6S777.16,581.87,777.16,574.74Z" transform="translate(-138.6 -52.78)"/><path class="cls-4" d="M537.36,615.69c0-8.52,3.32-13,8.55-13s8.55,4.49,8.55,13-3.33,13.19-8.55,13.19S537.36,624.21,537.36,615.69Zm12.74,0c0-7.13-1.76-9.4-4.19-9.4s-4.2,2.27-4.2,9.4,1.76,9.61,4.2,9.61S550.1,622.83,550.1,615.69Z" transform="translate(-138.6 -52.78)"/><path class="cls-4" d="M557.61,624.68h5.63V608.13h-4.65v-2.87a16.29,16.29,0,0,0,5.81-2.07h3.4v21.49h5v3.72H557.61Z" transform="translate(-138.6 -52.78)"/><path class="cls-4" d="M575.2,615.69c0-8.52,3.32-13,8.55-13s8.55,4.49,8.55,13-3.33,13.19-8.55,13.19S575.2,624.21,575.2,615.69Zm12.74,0c0-7.13-1.75-9.4-4.19-9.4s-4.2,2.27-4.2,9.4,1.76,9.61,4.2,9.61S587.94,622.83,587.94,615.69Z" transform="translate(-138.6 -52.78)"/><path class="cls-4" d="M594.12,615.69c0-8.52,3.32-13,8.55-13s8.55,4.49,8.55,13-3.33,13.19-8.55,13.19S594.12,624.21,594.12,615.69Zm12.75,0c0-7.13-1.76-9.4-4.2-9.4s-4.2,2.27-4.2,9.4,1.76,9.61,4.2,9.61S606.87,622.83,606.87,615.69Z" transform="translate(-138.6 -52.78)"/><path class="cls-4" d="M614.37,624.68H620V608.13h-4.66v-2.87a16.29,16.29,0,0,0,5.81-2.07h3.41v21.49h4.95v3.72H614.37Z" transform="translate(-138.6 -52.78)"/><path class="cls-4" d="M633.29,624.68h5.64V608.13h-4.66v-2.87a16.22,16.22,0,0,0,5.81-2.07h3.41v21.49h5v3.72H633.29Z" transform="translate(-138.6 -52.78)"/><path class="cls-4" d="M652.21,624.68h5.64V608.13H653.2v-2.87a16.36,16.36,0,0,0,5.81-2.07h3.4v21.49h5v3.72H652.21Z" transform="translate(-138.6 -52.78)"/><path class="cls-4" d="M671.13,624.68h5.64V608.13h-4.65v-2.87a16.36,16.36,0,0,0,5.81-2.07h3.4v21.49h5v3.72H671.13Z" transform="translate(-138.6 -52.78)"/><path class="cls-4" d="M688.73,615.69c0-8.52,3.32-13,8.55-13s8.55,4.49,8.55,13-3.33,13.19-8.55,13.19S688.73,624.21,688.73,615.69Zm12.74,0c0-7.13-1.76-9.4-4.19-9.4s-4.2,2.27-4.2,9.4,1.76,9.61,4.2,9.61S701.47,622.83,701.47,615.69Z" transform="translate(-138.6 -52.78)"/><path class="cls-4" d="M709,624.68h5.63V608.13H710v-2.87a16.29,16.29,0,0,0,5.81-2.07h3.4v21.49h5v3.72H709Z" transform="translate(-138.6 -52.78)"/><path class="cls-4" d="M727.9,624.68h5.64V608.13h-4.66v-2.87a16.29,16.29,0,0,0,5.81-2.07h3.4v21.49h5v3.72H727.9Z" transform="translate(-138.6 -52.78)"/><path class="cls-4" d="M746.82,624.68h5.64V608.13H747.8v-2.87a16.29,16.29,0,0,0,5.81-2.07H757v21.49h5v3.72H746.82Z" transform="translate(-138.6 -52.78)"/><path class="cls-4" d="M764.41,615.69c0-8.52,3.33-13,8.55-13s8.55,4.49,8.55,13-3.32,13.19-8.55,13.19S764.41,624.21,764.41,615.69Zm12.75,0c0-7.13-1.76-9.4-4.2-9.4s-4.2,2.27-4.2,9.4,1.76,9.61,4.2,9.61S777.16,622.83,777.16,615.69Z" transform="translate(-138.6 -52.78)"/><path class="cls-4" d="M539.93,664.71h5.63V648.17h-4.65V645.3a16.1,16.1,0,0,0,5.81-2.08h3.4v21.49h5v3.73H539.93Z" transform="translate(-138.6 -52.78)"/><path class="cls-4" d="M558.81,664.71h5.64V648.17h-4.66V645.3a16.1,16.1,0,0,0,5.81-2.08H569v21.49h5v3.73H558.81Z" transform="translate(-138.6 -52.78)"/><path class="cls-4" d="M576.36,655.73c0-8.52,3.32-13,8.55-13s8.55,4.49,8.55,13-3.33,13.18-8.55,13.18S576.36,664.25,576.36,655.73Zm12.75,0c0-7.14-1.76-9.4-4.2-9.4s-4.2,2.26-4.2,9.4,1.76,9.6,4.2,9.6S589.11,662.86,589.11,655.73Z" transform="translate(-138.6 -52.78)"/><path class="cls-4" d="M595.24,655.73c0-8.52,3.33-13,8.55-13s8.55,4.49,8.55,13-3.32,13.18-8.55,13.18S595.24,664.25,595.24,655.73Zm12.75,0c0-7.14-1.76-9.4-4.2-9.4s-4.19,2.26-4.19,9.4,1.75,9.6,4.19,9.6S608,662.86,608,655.73Z" transform="translate(-138.6 -52.78)"/><path class="cls-4" d="M615.45,664.71h5.64V648.17h-4.65V645.3a16.17,16.17,0,0,0,5.81-2.08h3.4v21.49h5v3.73H615.45Z" transform="translate(-138.6 -52.78)"/><path class="cls-4" d="M634.33,664.71H640V648.17h-4.65V645.3a16.17,16.17,0,0,0,5.81-2.08h3.4v21.49h5v3.73H634.33Z" transform="translate(-138.6 -52.78)"/><path class="cls-4" d="M651.89,655.73c0-8.52,3.32-13,8.55-13s8.55,4.49,8.55,13-3.33,13.18-8.55,13.18S651.89,664.25,651.89,655.73Zm12.74,0c0-7.14-1.75-9.4-4.19-9.4s-4.2,2.26-4.2,9.4,1.76,9.6,4.2,9.6S664.63,662.86,664.63,655.73Z" transform="translate(-138.6 -52.78)"/><path class="cls-4" d="M670.77,655.73c0-8.52,3.32-13,8.55-13s8.55,4.49,8.55,13-3.33,13.18-8.55,13.18S670.77,664.25,670.77,655.73Zm12.74,0c0-7.14-1.75-9.4-4.19-9.4s-4.2,2.26-4.2,9.4,1.76,9.6,4.2,9.6S683.51,662.86,683.51,655.73Z" transform="translate(-138.6 -52.78)"/><path class="cls-4" d="M689.65,655.73c0-8.52,3.32-13,8.55-13s8.55,4.49,8.55,13-3.33,13.18-8.55,13.18S689.65,664.25,689.65,655.73Zm12.75,0c0-7.14-1.76-9.4-4.2-9.4s-4.2,2.26-4.2,9.4,1.76,9.6,4.2,9.6S702.4,662.86,702.4,655.73Z" transform="translate(-138.6 -52.78)"/><path class="cls-4" d="M708.53,655.73c0-8.52,3.33-13,8.55-13s8.55,4.49,8.55,13-3.32,13.18-8.55,13.18S708.53,664.25,708.53,655.73Zm12.75,0c0-7.14-1.76-9.4-4.2-9.4s-4.19,2.26-4.19,9.4,1.75,9.6,4.19,9.6S721.28,662.86,721.28,655.73Z" transform="translate(-138.6 -52.78)"/><path class="cls-4" d="M728.74,664.71h5.64V648.17h-4.66V645.3a16.16,16.16,0,0,0,5.82-2.08h3.4v21.49h4.95v3.73H728.74Z" transform="translate(-138.6 -52.78)"/><path class="cls-4" d="M746.29,655.73c0-8.52,3.33-13,8.55-13s8.55,4.49,8.55,13-3.32,13.18-8.55,13.18S746.29,664.25,746.29,655.73Zm12.75,0c0-7.14-1.76-9.4-4.2-9.4s-4.19,2.26-4.19,9.4,1.76,9.6,4.19,9.6S759,662.86,759,655.73Z" transform="translate(-138.6 -52.78)"/><path class="cls-4" d="M766.51,664.71h5.63V648.17h-4.65V645.3a16.1,16.1,0,0,0,5.81-2.08h3.4v21.49h5v3.73H766.51Z" transform="translate(-138.6 -52.78)"/><path class="cls-4" d="M539.93,705.83h5.63V689.28h-4.65v-2.87a16.29,16.29,0,0,0,5.81-2.07h3.4v21.49h5v3.73H539.93Z" transform="translate(-138.6 -52.78)"/><path class="cls-4" d="M557.48,696.84c0-8.52,3.32-13,8.55-13s8.55,4.49,8.55,13S571.25,710,566,710,557.48,705.36,557.48,696.84Zm12.74,0c0-7.13-1.75-9.4-4.19-9.4s-4.2,2.27-4.2,9.4,1.76,9.61,4.2,9.61S570.22,704,570.22,696.84Z" transform="translate(-138.6 -52.78)"/><path class="cls-4" d="M577.69,705.83h5.64V689.28h-4.66v-2.87a16.29,16.29,0,0,0,5.81-2.07h3.41v21.49h5v3.73H577.69Z" transform="translate(-138.6 -52.78)"/><path class="cls-4" d="M596.57,705.83h5.64V689.28h-4.66v-2.87a16.29,16.29,0,0,0,5.81-2.07h3.41v21.49h5v3.73H596.57Z" transform="translate(-138.6 -52.78)"/><path class="cls-4" d="M614.12,696.84c0-8.52,3.33-13,8.55-13s8.55,4.49,8.55,13S627.9,710,622.67,710,614.12,705.36,614.12,696.84Zm12.75,0c0-7.13-1.76-9.4-4.2-9.4s-4.19,2.27-4.19,9.4,1.76,9.61,4.19,9.61S626.87,704,626.87,696.84Z" transform="translate(-138.6 -52.78)"/><path class="cls-4" d="M633,696.84c0-8.52,3.33-13,8.55-13s8.55,4.49,8.55,13S646.78,710,641.55,710,633,705.36,633,696.84Zm12.75,0c0-7.13-1.76-9.4-4.2-9.4s-4.19,2.27-4.19,9.4,1.76,9.61,4.19,9.61S645.75,704,645.75,696.84Z" transform="translate(-138.6 -52.78)"/><path class="cls-4" d="M651.89,696.84c0-8.52,3.32-13,8.55-13s8.55,4.49,8.55,13S665.66,710,660.44,710,651.89,705.36,651.89,696.84Zm12.74,0c0-7.13-1.75-9.4-4.19-9.4s-4.2,2.27-4.2,9.4,1.76,9.61,4.2,9.61S664.63,704,664.63,696.84Z" transform="translate(-138.6 -52.78)"/><path class="cls-4" d="M672.1,705.83h5.63V689.28h-4.65v-2.87a16.29,16.29,0,0,0,5.81-2.07h3.4v21.49h5v3.73H672.1Z" transform="translate(-138.6 -52.78)"/><path class="cls-4" d="M691,705.83h5.64V689.28H692v-2.87a16.29,16.29,0,0,0,5.81-2.07h3.41v21.49h5v3.73H691Z" transform="translate(-138.6 -52.78)"/><path class="cls-4" d="M709.86,705.83h5.64V689.28h-4.66v-2.87a16.29,16.29,0,0,0,5.81-2.07h3.41v21.49h5v3.73H709.86Z" transform="translate(-138.6 -52.78)"/><path class="cls-4" d="M727.41,696.84c0-8.52,3.33-13,8.55-13s8.55,4.49,8.55,13S741.19,710,736,710,727.41,705.36,727.41,696.84Zm12.75,0c0-7.13-1.76-9.4-4.2-9.4s-4.19,2.27-4.19,9.4,1.75,9.61,4.19,9.61S740.16,704,740.16,696.84Z" transform="translate(-138.6 -52.78)"/><path class="cls-4" d="M747.62,705.83h5.64V689.28h-4.65v-2.87a16.36,16.36,0,0,0,5.81-2.07h3.4v21.49h5v3.73H747.62Z" transform="translate(-138.6 -52.78)"/><path class="cls-4" d="M538,736.28c0-8.52,3.33-13,8.55-13s8.55,4.49,8.55,13-3.32,13.18-8.55,13.18S538,744.8,538,736.28Zm12.75,0c0-7.14-1.76-9.4-4.2-9.4s-4.19,2.26-4.19,9.4,1.75,9.6,4.19,9.6S550.76,743.41,550.76,736.28Z" transform="translate(-138.6 -52.78)"/><path class="cls-4" d="M556.89,736.28c0-8.52,3.33-13,8.55-13s8.55,4.49,8.55,13-3.32,13.18-8.55,13.18S556.89,744.8,556.89,736.28Zm12.75,0c0-7.14-1.76-9.4-4.2-9.4s-4.19,2.26-4.19,9.4,1.76,9.6,4.19,9.6S569.64,743.41,569.64,736.28Z" transform="translate(-138.6 -52.78)"/><path class="cls-4" d="M575.78,736.28c0-8.52,3.32-13,8.55-13s8.55,4.49,8.55,13-3.33,13.18-8.55,13.18S575.78,744.8,575.78,736.28Zm12.74,0c0-7.14-1.76-9.4-4.19-9.4s-4.2,2.26-4.2,9.4,1.76,9.6,4.2,9.6S588.52,743.41,588.52,736.28Z" transform="translate(-138.6 -52.78)"/><path class="cls-4" d="M596,745.26h5.63V728.71H597v-2.86a16.1,16.1,0,0,0,5.81-2.08h3.4v21.49h5V749H596Z" transform="translate(-138.6 -52.78)"/><path class="cls-4" d="M614.87,745.26h5.64V728.71h-4.66v-2.86a16.1,16.1,0,0,0,5.81-2.08h3.41v21.49H630V749H614.87Z" transform="translate(-138.6 -52.78)"/><path class="cls-4" d="M632.42,736.28c0-8.52,3.33-13,8.55-13s8.55,4.49,8.55,13-3.32,13.18-8.55,13.18S632.42,744.8,632.42,736.28Zm12.75,0c0-7.14-1.76-9.4-4.2-9.4s-4.2,2.26-4.2,9.4,1.76,9.6,4.2,9.6S645.17,743.41,645.17,736.28Z" transform="translate(-138.6 -52.78)"/><path class="cls-4" d="M652.63,745.26h5.64V728.71h-4.66v-2.86a16,16,0,0,0,5.81-2.08h3.41v21.49h4.95V749H652.63Z" transform="translate(-138.6 -52.78)"/><path class="cls-4" d="M670.18,736.28c0-8.52,3.33-13,8.55-13s8.55,4.49,8.55,13-3.32,13.18-8.55,13.18S670.18,744.8,670.18,736.28Zm12.75,0c0-7.14-1.76-9.4-4.2-9.4s-4.19,2.26-4.19,9.4,1.75,9.6,4.19,9.6S682.93,743.41,682.93,736.28Z" transform="translate(-138.6 -52.78)"/><path class="cls-4" d="M689.07,736.28c0-8.52,3.32-13,8.55-13s8.55,4.49,8.55,13-3.33,13.18-8.55,13.18S689.07,744.8,689.07,736.28Zm12.74,0c0-7.14-1.76-9.4-4.19-9.4s-4.2,2.26-4.2,9.4,1.76,9.6,4.2,9.6S701.81,743.41,701.81,736.28Z" transform="translate(-138.6 -52.78)"/><path class="cls-4" d="M709.28,745.26h5.63V728.71h-4.65v-2.86a16.1,16.1,0,0,0,5.81-2.08h3.4v21.49h5V749H709.28Z" transform="translate(-138.6 -52.78)"/><path class="cls-4" d="M537.52,775.83c0-8.52,3.32-13,8.55-13s8.55,4.48,8.55,13S551.29,789,546.07,789,537.52,784.35,537.52,775.83Zm12.74,0c0-7.13-1.76-9.4-4.19-9.4s-4.2,2.27-4.2,9.4,1.76,9.61,4.2,9.61S550.26,783,550.26,775.83Z" transform="translate(-138.6 -52.78)"/><path class="cls-4" d="M557.73,784.82h5.64V768.27h-4.66V765.4a16.1,16.1,0,0,0,5.81-2.08h3.4v21.5h5v3.72H557.73Z" transform="translate(-138.6 -52.78)"/><path class="cls-4" d="M576.61,784.82h5.64V768.27h-4.66V765.4a16.1,16.1,0,0,0,5.81-2.08h3.41v21.5h5v3.72H576.61Z" transform="translate(-138.6 -52.78)"/><path class="cls-4" d="M594.16,775.83c0-8.52,3.33-13,8.55-13s8.55,4.48,8.55,13S607.94,789,602.71,789,594.16,784.35,594.16,775.83Zm12.75,0c0-7.13-1.76-9.4-4.2-9.4s-4.19,2.27-4.19,9.4,1.75,9.61,4.19,9.61S606.91,783,606.91,775.83Z" transform="translate(-138.6 -52.78)"/><path class="cls-4" d="M614.37,784.82H620V768.27h-4.65V765.4a16.17,16.17,0,0,0,5.81-2.08h3.4v21.5h5v3.72H614.37Z" transform="translate(-138.6 -52.78)"/><path class="cls-4" d="M633.25,784.82h5.64V768.27h-4.65V765.4a16.17,16.17,0,0,0,5.81-2.08h3.4v21.5h5v3.72H633.25Z" transform="translate(-138.6 -52.78)"/><path class="cls-4" d="M652.14,784.82h5.63V768.27h-4.65V765.4a16.1,16.1,0,0,0,5.81-2.08h3.4v21.5h5v3.72H652.14Z" transform="translate(-138.6 -52.78)"/><path class="cls-4" d="M669.69,775.83c0-8.52,3.32-13,8.55-13s8.55,4.48,8.55,13S683.46,789,678.24,789,669.69,784.35,669.69,775.83Zm12.74,0c0-7.13-1.75-9.4-4.19-9.4s-4.2,2.27-4.2,9.4,1.76,9.61,4.2,9.61S682.43,783,682.43,775.83Z" transform="translate(-138.6 -52.78)"/><path class="cls-4" d="M688.57,775.83c0-8.52,3.32-13,8.55-13s8.55,4.48,8.55,13S702.34,789,697.12,789,688.57,784.35,688.57,775.83Zm12.75,0c0-7.13-1.76-9.4-4.2-9.4s-4.2,2.27-4.2,9.4,1.76,9.61,4.2,9.61S701.32,783,701.32,775.83Z" transform="translate(-138.6 -52.78)"/><path class="cls-4" d="M538.85,825.94h5.63V809.39h-4.65v-2.87a16.1,16.1,0,0,0,5.81-2.08H549v21.5h5v3.72H538.85Z" transform="translate(-138.6 -52.78)"/><path class="cls-4" d="M557.77,825.94h5.63V809.39h-4.65v-2.87a16.1,16.1,0,0,0,5.81-2.08H568v21.5h5v3.72H557.77Z" transform="translate(-138.6 -52.78)"/><path class="cls-4" d="M575.36,817c0-8.52,3.32-13,8.55-13s8.55,4.48,8.55,13-3.33,13.19-8.55,13.19S575.36,825.47,575.36,817Zm12.74,0c0-7.14-1.75-9.4-4.19-9.4s-4.2,2.26-4.2,9.4,1.76,9.6,4.2,9.6S588.1,824.08,588.1,817Z" transform="translate(-138.6 -52.78)"/><path class="cls-4" d="M594.28,817c0-8.52,3.33-13,8.55-13s8.55,4.48,8.55,13-3.33,13.19-8.55,13.19S594.28,825.47,594.28,817ZM607,817c0-7.14-1.76-9.4-4.2-9.4s-4.2,2.26-4.2,9.4,1.76,9.6,4.2,9.6S607,824.08,607,817Z" transform="translate(-138.6 -52.78)"/><path class="cls-4" d="M614.53,825.94h5.64V809.39h-4.66v-2.87a16.1,16.1,0,0,0,5.81-2.08h3.41v21.5h4.95v3.72H614.53Z" transform="translate(-138.6 -52.78)"/><path class="cls-4" d="M632.12,817c0-8.52,3.33-13,8.55-13s8.55,4.48,8.55,13-3.32,13.19-8.55,13.19S632.12,825.47,632.12,817Zm12.75,0c0-7.14-1.76-9.4-4.2-9.4s-4.19,2.26-4.19,9.4,1.75,9.6,4.19,9.6S644.87,824.08,644.87,817Z" transform="translate(-138.6 -52.78)"/><path class="cls-4" d="M652.37,825.94H658V809.39h-4.65v-2.87a16.17,16.17,0,0,0,5.81-2.08h3.4v21.5h5v3.72H652.37Z" transform="translate(-138.6 -52.78)"/><path class="cls-4" d="M537.94,856.71c0-8.52,3.32-13,8.55-13s8.55,4.49,8.55,13-3.33,13.19-8.55,13.19S537.94,865.23,537.94,856.71Zm12.74,0c0-7.13-1.75-9.4-4.19-9.4s-4.2,2.27-4.2,9.4,1.76,9.61,4.2,9.61S550.68,863.85,550.68,856.71Z" transform="translate(-138.6 -52.78)"/><path class="cls-4" d="M556.78,856.71c0-8.52,3.33-13,8.55-13s8.55,4.49,8.55,13-3.32,13.19-8.55,13.19S556.78,865.23,556.78,856.71Zm12.75,0c0-7.13-1.76-9.4-4.2-9.4s-4.19,2.27-4.19,9.4,1.75,9.61,4.19,9.61S569.53,863.85,569.53,856.71Z" transform="translate(-138.6 -52.78)"/><path class="cls-4" d="M577,865.7h5.64V849.15h-4.66v-2.87a16.35,16.35,0,0,0,5.82-2.07h3.4V865.7h5v3.72H577Z" transform="translate(-138.6 -52.78)"/><path class="cls-4" d="M594.47,856.71c0-8.52,3.32-13,8.54-13s8.55,4.49,8.55,13S608.24,869.9,603,869.9,594.47,865.23,594.47,856.71Zm12.74,0c0-7.13-1.76-9.4-4.2-9.4s-4.19,2.27-4.19,9.4,1.76,9.61,4.19,9.61S607.21,863.85,607.21,856.71Z" transform="translate(-138.6 -52.78)"/><path class="cls-4" d="M614.64,865.7h5.63V849.15h-4.65v-2.87a16.29,16.29,0,0,0,5.81-2.07h3.4V865.7h5v3.72H614.64Z" transform="translate(-138.6 -52.78)"/><path class="cls-4" d="M538.85,902.64h5.63V886.09h-4.65v-2.87a16.1,16.1,0,0,0,5.81-2.08H549v21.5h5v3.72H538.85Z" transform="translate(-138.6 -52.78)"/><path class="cls-4" d="M557.69,902.64h5.64V886.09h-4.66v-2.87a16.1,16.1,0,0,0,5.81-2.08h3.4v21.5h5v3.72H557.69Z" transform="translate(-138.6 -52.78)"/><path class="cls-4" d="M575.2,893.65c0-8.52,3.33-13,8.55-13s8.55,4.49,8.55,13-3.32,13.19-8.55,13.19S575.2,902.17,575.2,893.65Zm12.75,0c0-7.13-1.76-9.4-4.2-9.4s-4.2,2.27-4.2,9.4,1.76,9.61,4.2,9.61S588,900.78,588,893.65Z" transform="translate(-138.6 -52.78)"/><path class="cls-3" d="M179.48,405c-2.6,2.18-1.51,6.16-1.08,14.07-.35,13.13-.73,26.52,4.32,38.95,5,12.73,13,27.78,15.85,42.2,4.79,24.95,4.36,56.06,21.47,77.51,2.73,4.54,15.2,14.08,19.54,9.37,6.87-21.1-10.06-126.44-23.72-144.59C210.43,431.25,193.41,396.23,179.48,405Z" transform="translate(-138.6 -52.78)"/><path class="cls-5" d="M316.9,150.7c-18.36,14.34-38.75,30.69-42.7,55.1a70,70,0,0,0-1.65,18.63c4.58,1.14,10.46.15,15.36.57-3.63-23.53,13-44.13,31.88-56.09l-.18-19.29Z" transform="translate(-138.6 -52.78)"/><path class="cls-6" d="M377.06,128.33c-14.34.09-31-1.22-40.3,11.85,15.5-1.53,37.72,3.85,39.56,22.26-.33,10.92-.61,26.53-14.88,27.09-18.91,4.84-39.45-1.65-40.94-23.73-8.23-28.85,21-52.49,48.19-49.37C379.62,115.33,377.72,119.4,377.06,128.33Z" transform="translate(-138.6 -52.78)"/><path class="cls-3" d="M200.73,300l54,401.06L445.69,909.55l74.21-1.44c-.36-121.23,10.29-679.9,10.54-788.54-17.86-12.57-35.83-29.37-59-30.2-20.44-.72-40.79,3.37-60,10.29-6.89,2.2-33.36,14.86-34.2,17.08-.41,1.06.05,3.16.07,4.28.45,24.92.9,51.05,1.36,75.84H299.43l.72,28.14-59.79-.73V336.8Z" transform="translate(-138.6 -52.78)"/><text x="-138.6" y="-52.78"/><path class="cls-7" d="M343.5,437.67c-60.62,43-29.32,138.38,44.61,132.67,29.35.14,52.54-18.37,63.88-44.54,4.82-13,3.54-26.51,1.53-42.93-4.19-16.41-16.84-35.81-29.12-43.51.08-.11,3.62,2.19,3.64,2.16C405.18,424,368.09,419.22,343.5,437.67Z" transform="translate(-138.6 -52.78)"/><path class="cls-8" d="M378.65,438.27c-7.62,7.25-4.9,10.69-6,23.33-.51,10.24,0,20.52-.24,30.78-.39,1.65,1.37,5.16,3.36,6,4.12,3.54,14.91,3.3,18-3.13.59-1.18.46-8.3.42-9.77-.11-2.3,0-1.87.06-10.43.06-11.29,0-9.54,0-12-.33-2.09,3.38-22.29-4.09-24C389.45,437.69,381.23,436.6,378.65,438.27Z" transform="translate(-138.6 -52.78)"/><path class="cls-9" d="M382.69,221.33l.36-100.79c3.91-5.7,13.55-9.18,19.45-12.4,7.61-3,14.72-5.68,22.7-8.08,5.1-1.5,10.34-3.73,15.3-4.86a210.34,210.34,0,0,1,25.4-1.61c6.41.38,15.93.49,22,1.44,3.76,1.37,11.72,4.11,15.49,5.38,1.93,1.3,8.63,5,10.62,6.29,5.11,4.4,11.41,9,14.77,14.74q-5.67,280.8-11.35,561.61" transform="translate(-138.6 -52.78)"/><polygon class="cls-10" points="109.44 178.22 109.2 286.19 185.09 352.55 181.97 177.5 109.44 178.22"/><path class="cls-10" d="M208.9,314l116.47,103.4,139.77.24,1,164.94-53.07-1,77.09,103.64,25.69.48-.48,218.8-65.56-1-191.16-207C250.81,617.9,220.13,395.25,208.9,314Z" transform="translate(-138.6 -52.78)"/><polygon class="cls-10" points="167.56 150.33 167.68 168.25 189.65 168.43 190.91 168.25 196.68 354.35 227.12 353.81 227.48 166.8 232.34 167.16 232.16 150.21 167.56 150.33"/><polygon class="cls-10" points="235.22 174.2 312.49 174.74 311.95 354.35 235.76 354.17 235.22 174.2"/><polyline class="cls-10" points="246.33 166.68 319.58 167.88 319.82 353.27 336.39 353.99 335.19 538.9 293.64 538.42 353.44 620.17 373.37 620.89"/><path class="cls-6" d="M364.73,167c-.08,19.89-30.29,19.89-30.37,0C334.44,147.15,364.65,147.15,364.73,167Z" transform="translate(-138.6 -52.78)"/><path class="cls-2" d="M183.84,414.06c-4.48,32.62,9.49,55.69,19.45,85.26,8.65,25.73.08,63.17,25.86,80.64,14.5,7.94,2.31-21.28,2.88-27.32-4.43-29.07-7.72-58.31-11.62-87.45-3.37-11.21-11.57-20.48-16.82-31-4.93-6.27-7.63-14.6-14.13-19.38C188.76,414.41,184.25,411.89,183.84,414.06Z" transform="translate(-138.6 -52.78)"/><path class="cls-11" d="M414.78,463a9.81,9.81,0,0,0-3.16-.8c1.1.32,2.22.67,3.35.95Z" transform="translate(-138.6 -52.78)"/><path class="cls-11" d="M412.12,462a3.2,3.2,0,0,0-.86.1l.07,0A2.66,2.66,0,0,1,412.12,462Z" transform="translate(-138.6 -52.78)"/><path class="cls-11" d="M415,463.12c-1.13-.28-2.25-.63-3.35-.95a4.84,4.84,0,0,0-.63,0,2.79,2.79,0,0,1,.34-.12l-.07,0-.25.05,0,0c-.24-.05-.55,0-.71-.13a14.2,14.2,0,0,0-7,1c-.1.11-.2.21-.3.34-1.66,1.67-.55,4,.44,6.51.23.35.46.69.68,1a31.8,31.8,0,0,1,7.9,8c8.43,11.94,9.35,25.61,3.24,37.22a24.8,24.8,0,0,1-4.93,7.19v0l-.54.55A34.32,34.32,0,0,1,385.54,537c-18.79.86-35.88-12.81-38.44-31.6a35.45,35.45,0,0,1,11.69-30.05,50,50,0,0,1,4.57-4c.86-2.43,1.62-4.29,1.64-6.89A14.36,14.36,0,0,0,352.94,463l.09-.11a4.42,4.42,0,0,1-1.9-.06c-.13.09-.24.2-.37.3a17.59,17.59,0,0,1,2.12-.09,17.59,17.59,0,0,0-2.12.09c-36.33,26.56-14.17,87.2,32.08,85.59C429.1,550.3,451.2,489.67,415,463.12Z" transform="translate(-138.6 -52.78)"/><path class="cls-11" d="M354.59,471.59c6.44,0,6.45-10,0-10s-6.44,10,0,10Z" transform="translate(-138.6 -52.78)"/><path class="cls-11" d="M355.92,471.27l.61-.25-3.85-9.14c.74-.25.85-.3.33-.18l2.65,9.65c.48-.14,1-.23,1.46-.4s.49-.14-.21-.05c-.55-.12-.64-.13-.24,0a13.12,13.12,0,0,0,5.26.06c2.58-.44,4.26-3.76,3.49-6.15a5.14,5.14,0,0,0-6.15-3.49c.54-.07.51-.09-.1-.06.55.08.52.07-.08-.06a8.2,8.2,0,0,0-2.37-.24,19.59,19.59,0,0,0-3.71.78,5.06,5.06,0,0,0-3.5,6.15,5.12,5.12,0,0,0,6.15,3.5,7.33,7.33,0,0,0,2.07-.84,5,5,0,0,0,2-6.24c-.87-2.07-3.58-3.85-5.89-2.9l-.62.25c-2.41,1-4.39,3.37-3.49,6.16.75,2.32,3.56,4.55,6.15,3.49Z" transform="translate(-138.6 -52.78)"/><path class="cls-11" d="M360.33,472.21c6.43,0,6.45-10,0-10s-6.45,10,0,10Z" transform="translate(-138.6 -52.78)"/><path class="cls-11" d="M364.66,464.87h0l.5,1.19v0l.17,1.33a.08.08,0,0,1,0,0l-.18,1.33v0l-.5,1.2,0,0-.78,1v0l-1,.78h0l-1.2.5h0l-5.65-7.34-.09.12.78-1a2.21,2.21,0,0,1-.29.32l7.85,6.06.06-.12a4.85,4.85,0,0,0-.39-5.55,3.89,3.89,0,0,0-1.41-1.29l-1.19-.5a5,5,0,0,0-2.66,0l-1.19.5a5,5,0,0,0-1.8,1.8l-.05.11a5.55,5.55,0,0,0-.51,3.85l.51,1.2a3.75,3.75,0,0,0,1.28,1.4,2.44,2.44,0,0,0,1.11.64,3.75,3.75,0,0,0,1.92.44l1.33-.18a5,5,0,0,0,2.21-1.29l.22-.22c.16-.19.32-.41.47-.6s.33-.42.48-.63l.5-1.2.18-1.33-.18-1.33a3.77,3.77,0,0,0-.89-1.7,2.56,2.56,0,0,0-.9-.89,4.79,4.79,0,0,0-2.36-1,3.78,3.78,0,0,0-2,.09h0l-1.19.5c-.08.05-1,.72-1,.79s-.74.94-.8,1a4,4,0,0,0-.27.63,2.56,2.56,0,0,0-.35,1.28,6.28,6.28,0,0,0-.09.69s.17,1.31.19,1.35.46,1.14.51,1.22a3.86,3.86,0,0,0,1.29,1.4,5.16,5.16,0,0,0,5.55.4l1-.79a5,5,0,0,0,1.28-2.2l.18-1.33a5,5,0,0,0-.68-2.53Z" transform="translate(-138.6 -52.78)"/><path class="cls-11" d="M361.3,460.88a10.23,10.23,0,0,0-8.17.66c-2.36,1.14-3.17,4.7-1.79,6.84a5.12,5.12,0,0,0,6.84,1.79c-.32.16-1.06.37-.29.15.23-.06.45-.11.68-.15l-1.33.18a6.46,6.46,0,0,1,1.39,0l-1.33-.18a6.26,6.26,0,0,1,1.35.36,5,5,0,0,0,3.85-.5,5.14,5.14,0,0,0,2.3-3,5.07,5.07,0,0,0-.51-3.85,5.82,5.82,0,0,0-3-2.3Z" transform="translate(-138.6 -52.78)"/><path class="cls-11" d="M414.3,462.56a16.7,16.7,0,0,0-7.42-1.6,5.06,5.06,0,0,0-4.82,6.33,8.51,8.51,0,0,0,.89,2.36,7.45,7.45,0,0,0,2.87,2.44,5,5,0,0,0,5.05-8.63,10.66,10.66,0,0,1-1.08-.65l1.79,1.79c.33.91.42,1.1.26.56l-.14-.52L406.88,471c.33,0,.67,0,1,0s.45,0,.67,0c-.72-.1-.88-.12-.5-.05s.66.13,1,.23,1.52.57.22,0a5.48,5.48,0,0,0,3.85.5,5.09,5.09,0,0,0,3-2.29c1.14-2.16.77-5.74-1.79-6.84Z" transform="translate(-138.6 -52.78)"/><path class="cls-11" d="M413.22,472.86c6.44,0,6.45-10,0-10s-6.44,10,0,10Z" transform="translate(-138.6 -52.78)"/><path class="cls-11" d="M411.53,472.36l.13,0-1.19-.5a.81.81,0,0,1,.18.1l-1-.78a.91.91,0,0,1,.17.17l-.79-1a.87.87,0,0,1,.11.18,3.7,3.7,0,0,0,1.29,1.4,4.47,4.47,0,0,0,3.69,1,3.66,3.66,0,0,0,1.86-.6l1-.78a5,5,0,0,0,1.29-2.2l.18-1.33a5,5,0,0,0-.69-2.53,3.48,3.48,0,0,0-.49-.68,4,4,0,0,0-.54-.65l-.53-.41c-.17-.15-.35-.29-.53-.42l-.09,0-.06,0-1.2-.5-.13-.05a3.85,3.85,0,0,0-2-.08,3.65,3.65,0,0,0-1.86.59,3.7,3.7,0,0,0-1.4,1.29,3.74,3.74,0,0,0-.9,1.7l-.18,1.33a5,5,0,0,0,.69,2.52l.78,1a5,5,0,0,0,2.2,1.29Z" transform="translate(-138.6 -52.78)"/></svg>